M48
; DRILL file {KiCad (5.1.4-0-10_14)} date Sunday, April 19, 2020 at 11:22:56 PM
; FORMAT={-:-/ absolute / inch / decimal}
; #@! TF.CreationDate,2020-04-19T23:22:56-05:00
; #@! TF.GenerationSoftware,Kicad,Pcbnew,(5.1.4-0-10_14)
; #@! TF.FileFunction,NonPlated,1,2,NPTH
FMAT,2
INCH
T1C0.0256
T2C0.0689
T3C0.1181
T4C0.1200
T5C0.1570
%
G90
G05
T1
X5.3912Y-2.8311
X5.6188Y-2.8311
T2
X9.045Y-4.535
X9.445Y-4.535
X7.4969Y-3.2128
X7.8931Y-3.1572
X6.7769Y-4.8328
X9.315Y-3.775
X9.715Y-3.775
X3.8319Y-3.9822
X4.2281Y-4.0378
X10.635Y-4.535
X7.1731Y-4.7772
X9.77Y-3.02
X10.17Y-3.02
X11.035Y-4.535
X4.0969Y-4.7772
X4.4931Y-4.8328
X0.685Y-5.285
X1.085Y-5.285
X8.2619Y-4.6228
X0.72Y-3.77
X1.12Y-3.77
X1.82Y-4.53
X2.22Y-4.53
X2.2669Y-3.0022
X2.6631Y-3.0578
X3.1619Y-5.4022
X2.7431Y-3.8278
X3.5581Y-5.4578
X4.8419Y-4.8822
X10.555Y-5.29
X10.955Y-5.29
X2.3469Y-3.7722
X6.6019Y-5.6178
X6.9981Y-5.5622
X2.6169Y-4.5672
X3.0131Y-4.6228
X8.2419Y-3.1078
X8.6381Y-3.0522
X7.0419Y-4.0378
X7.4381Y-3.9822
X8.6581Y-4.5672
X7.5169Y-4.7278
X7.9131Y-4.6722
X5.2381Y-4.9378
X10.345Y-3.78
X10.745Y-3.78
X4.4969Y-3.3172
X4.8931Y-3.3728
X4.5769Y-4.0872
X9.615Y-5.29
X10.015Y-5.29
X9.425Y-3.02
X6.6981Y-4.0822
X1.565Y-3.77
X1.965Y-3.77
X6.7569Y-3.3178
X7.1531Y-3.2622
X4.9731Y-4.1428
X4.3669Y-5.5722
X4.7631Y-5.6278
X3.0919Y-3.8772
X3.4881Y-3.9328
X6.3019Y-4.1378
X9.795Y-4.535
X10.195Y-4.535
X3.3569Y-4.6722
X3.7531Y-4.7278
X6.4281Y-4.8822
X1.625Y-5.285
X2.025Y-5.285
X7.7869Y-3.9328
X8.1831Y-3.8772
X0.73Y-3.015
X1.13Y-3.015
X6.0319Y-4.9378
X9.025Y-3.02
X3.7519Y-3.2122
X4.1481Y-3.2678
X0.795Y-4.53
X8.9281Y-3.7722
X10.52Y-3.02
X10.92Y-3.02
X8.5319Y-3.8278
X3.0069Y-3.1072
X3.4031Y-3.1628
X1.195Y-4.53
X6.0119Y-3.4228
X6.4081Y-3.3672
X1.48Y-3.015
X1.88Y-3.015
X7.9019Y-5.4328
X8.2981Y-5.3772
T3
X2.4104Y-3.6801
X2.6719Y-3.6159
X2.9419Y-4.4109
X6.7925Y-3.2118
X7.0262Y-3.078
X2.6804Y-4.4751
X4.5604Y-3.2251
X4.8219Y-3.1609
X10.395Y-3.68
X10.645Y-3.58
X4.6404Y-3.9951
X4.9019Y-3.9309
X9.075Y-2.92
X9.325Y-2.82
X1.925Y-5.085
X3.1554Y-3.7851
X3.4169Y-3.7209
X7.8225Y-3.8268
X8.0562Y-3.693
X1.675Y-5.185
X3.4204Y-4.5801
X3.6819Y-4.5159
X6.0675Y-4.8318
X7.9375Y-5.3268
X1.615Y-3.67
X1.865Y-3.57
X10.095Y-4.335
X3.3319Y-2.9509
X8.1712Y-5.193
X9.845Y-4.435
X10.57Y-2.92
X10.82Y-2.82
X3.0704Y-3.0151
X0.78Y-2.915
X1.03Y-2.815
X6.3375Y-4.0318
X8.8012Y-3.588
X6.0475Y-3.3168
X6.3012Y-4.698
X6.5712Y-3.898
X8.5675Y-3.7218
X6.2812Y-3.183
X0.845Y-4.43
X1.095Y-4.33
X1.53Y-2.915
X1.78Y-2.815
X9.095Y-4.435
X9.345Y-4.335
X7.5325Y-3.1068
X7.7662Y-2.973
X0.735Y-5.185
X4.1569Y-3.8259
X9.82Y-2.92
X3.8954Y-3.8901
X10.07Y-2.82
X4.0769Y-3.0559
X0.985Y-5.085
X3.8154Y-3.1201
X10.685Y-4.435
X9.615Y-3.575
X4.4304Y-5.4801
X4.6919Y-5.4159
X4.1604Y-4.6851
X4.4219Y-4.6209
X6.8125Y-4.7268
X7.0462Y-4.593
X2.3304Y-2.9101
X10.935Y-4.335
X1.87Y-4.43
X2.12Y-4.33
X9.665Y-5.19
X7.0775Y-3.9318
X8.2975Y-4.5168
X8.5312Y-4.383
X2.5919Y-2.8459
X9.365Y-3.675
X0.77Y-3.67
X1.02Y-3.57
X8.2775Y-3.0018
X10.605Y-5.19
X3.2254Y-5.3101
X3.4869Y-5.2459
X10.855Y-5.09
X7.3112Y-3.798
X6.8712Y-5.378
X8.5112Y-2.868
X7.7862Y-4.488
X9.915Y-5.09
X4.9054Y-4.7901
X6.6375Y-5.5118
X5.1669Y-4.7259
X7.5525Y-4.6218
T4
X6.3728Y-5.9277
X7.3037Y-5.7969
X4.0613Y-5.8069
X4.9922Y-5.9377
T5
X4.295Y-4.805
X6.975Y-4.805
X2.02Y-4.53
X8.46Y-4.595
X5.04Y-4.91
X10.755Y-5.29
X7.24Y-4.01
X8.44Y-3.08
X6.8Y-5.59
X7.2202Y-5.2028
X7.715Y-4.7
X2.545Y-3.8
X6.2893Y-5.3336
X3.36Y-5.43
X4.565Y-5.6
X5.0757Y-5.3436
X9.815Y-5.29
X4.1448Y-5.2128
X6.955Y-3.29
X2.815Y-4.595
X4.695Y-3.345
X4.775Y-4.115
X10.545Y-3.78
X6.5Y-4.11
X0.885Y-5.285
X3.95Y-3.24
X6.21Y-3.395
X3.205Y-3.135
X0.93Y-3.015
X6.23Y-4.91
X9.225Y-3.02
X10.72Y-3.02
X8.1Y-5.405
X1.765Y-3.77
X9.995Y-4.535
X1.825Y-5.285
X3.29Y-3.905
X7.985Y-3.905
X3.555Y-4.7
X4.03Y-4.01
X0.995Y-4.53
X8.73Y-3.8
X2.465Y-3.03
X1.68Y-3.015
X9.245Y-4.535
X7.695Y-3.185
X9.97Y-3.02
X10.835Y-4.535
X0.92Y-3.77
X9.515Y-3.775
T0
M30
