M48
; DRILL file {KiCad (5.1.4-0-10_14)} date Sunday, April 19, 2020 at 11:22:56 PM
; FORMAT={-:-/ absolute / inch / decimal}
; #@! TF.CreationDate,2020-04-19T23:22:56-05:00
; #@! TF.GenerationSoftware,Kicad,Pcbnew,(5.1.4-0-10_14)
; #@! TF.FileFunction,Plated,1,2,PTH
FMAT,2
INCH
T1C0.0157
T2C0.0236
%
G90
G05
T1
X0.73Y-3.935
X1.26Y-3.32
X1.27Y-4.06
X1.31Y-5.495
X1.35Y-4.825
X1.555Y-3.965
X2.01Y-3.32
X2.1Y-4.06
X2.27Y-5.575
X2.365Y-4.825
X2.38Y-3.995
X2.45Y-5.095
X2.775Y-3.4
X2.835Y-4.185
X3.075Y-4.085
X3.115Y-4.945
X3.51Y-3.52
X3.595Y-4.285
X3.77Y-5.695
X3.855Y-5.08
X3.935Y-4.2565
X4.25Y-3.635
X4.335Y-4.405
X4.595Y-4.3765
X4.6Y-5.08
X4.775Y-5.855
X4.78Y-2.845
X4.975Y-3.69
X5.035Y-4.56
X5.17Y-3.125
X5.195Y-3.385
X5.24Y-4.17
X5.335Y-4.03
X5.34Y-4.475
X5.34Y-5.155
X5.355Y-4.095
X5.38Y-3.2
X5.43Y-4.36
X5.44Y-4.44
X5.45Y-4.4
X5.47Y-4.47
X5.48Y-4.515
X5.495Y-3.855
X5.51Y-3.95
X5.53Y-4.18
X5.535Y-4.515
X5.63Y-3.2
X5.63Y-4.14
X5.645Y-4.06
X5.675Y-4.565
X5.6995Y-3.3855
X5.725Y-4.025
X5.73Y-4.065
X5.82Y-5.105
X5.875Y-3.965
X5.885Y-4.225
X5.8998Y-4.6548
X5.905Y-5.69
X5.94Y-3.93
X5.975Y-3.96
X5.99Y-4.33
X6.015Y-3.92
X6.02Y-3.765
X6.05Y-3.94
X6.09Y-3.92
X6.12Y-3.88
X6.1489Y-3.9168
X6.22Y-4.275
X6.225Y-2.84
X6.575Y-3.69
X6.59Y-5.155
X6.7803Y-3.7753
X6.86Y-4.4015
X7.165Y-5.735
X7.31Y-3.515
X7.32Y-5.015
X7.605Y-4.285
X7.67Y-3.6252
X8.06Y-3.425
X8.075Y-4.91
X8.355Y-4.13
X8.37Y-3.5175
X8.47Y-5.635
X8.8Y-3.315
X8.82Y-4.91
X8.96Y-5.19
X8.965Y-3.4035
X9.105Y-4.09
X9.56Y-3.315
X9.575Y-4.85
X9.71Y-3.375
X9.86Y-4.05
X10.16Y-5.52
X10.3Y-3.315
X10.335Y-4.85
X10.375Y-3.3435
X10.885Y-4.05
X11.095Y-5.52
X11.12Y-4.895
X11.135Y-3.315
T2
G00X5.3349Y-2.6756
M15
G01X5.3349Y-2.6992
M16
G05
G00X5.3349Y-2.8303
M15
G01X5.3349Y-2.8736
M16
G05
G00X5.6751Y-2.6756
M15
G01X5.6751Y-2.6992
M16
G05
G00X5.6751Y-2.8303
M15
G01X5.6751Y-2.8736
M16
G05
T0
M30
