M48
; DRILL file {KiCad (5.1.4-0-10_14)} date Sunday, May 03, 2020 at 04:55:59 PM
; FORMAT={-:-/ absolute / metric / decimal}
; #@! TF.CreationDate,2020-05-03T16:55:59-05:00
; #@! TF.GenerationSoftware,Kicad,Pcbnew,(5.1.4-0-10_14)
FMAT,2
METRIC
T1C0.400
T2C0.600
T3C1.016
T4C0.650
T5C1.750
T6C3.000
T7C3.048
T8C3.988
%
G90
G05
T1
X18.542Y-99.949
X32.004Y-84.328
X32.258Y-103.124
X33.274Y-139.573
X34.29Y-122.555
X39.497Y-100.711
X51.054Y-84.328
X53.34Y-103.124
X57.658Y-141.605
X60.071Y-122.555
X60.452Y-101.473
X62.23Y-129.413
X67.31Y-104.521
X70.485Y-86.36
X72.009Y-106.299
X78.105Y-103.759
X79.121Y-125.603
X89.154Y-89.408
X91.313Y-108.839
X95.758Y-144.653
X97.917Y-129.032
X99.949Y-108.114
X107.95Y-92.329
X110.109Y-111.887
X116.332Y-149.987
X116.713Y-111.162
X116.84Y-129.032
X121.285Y-148.717
X121.412Y-72.263
X126.365Y-93.726
X127.889Y-115.824
X131.318Y-79.375
X131.953Y-85.979
X133.096Y-105.918
X135.509Y-102.362
X135.636Y-113.665
X135.636Y-130.937
X136.017Y-104.013
X136.652Y-81.28
X137.922Y-110.744
X138.176Y-112.776
X138.43Y-111.76
X138.938Y-113.538
X139.192Y-114.681
X139.573Y-97.917
X139.954Y-100.33
X140.462Y-106.172
X140.589Y-114.681
X140.793Y-97.894
X141.224Y-91.059
X141.383Y-98.701
X141.478Y-150.114
X143.002Y-81.28
X143.002Y-105.156
X143.256Y-91.059
X143.383Y-103.124
X143.51Y-97.917
X144.145Y-115.951
X145.161Y-91.059
X145.415Y-102.235
X145.542Y-103.251
X146.939Y-85.979
X147.828Y-129.667
X149.225Y-100.711
X149.479Y-107.315
X149.606Y-70.866
X149.855Y-118.232
X149.987Y-144.526
X150.876Y-99.822
X151.003Y-77.978
X151.765Y-100.584
X152.019Y-78.359
X152.146Y-109.982
X152.781Y-99.568
X152.908Y-95.631
X153.67Y-100.076
X154.686Y-99.568
X155.448Y-98.552
X156.181Y-99.486
X157.988Y-108.585
X167.005Y-93.726
X167.386Y-130.937
X172.22Y-95.893
X174.244Y-111.797
X176.784Y-70.612
X181.991Y-145.669
X185.674Y-89.281
X185.928Y-127.381
X193.167Y-108.839
X194.818Y-92.081
X204.724Y-86.995
X205.105Y-124.714
X212.217Y-104.902
X212.598Y-89.345
X215.138Y-143.129
X223.52Y-84.201
X224.028Y-124.714
X227.584Y-131.826
X227.711Y-86.45
X231.267Y-103.886
X242.824Y-84.201
X243.205Y-123.19
X246.634Y-85.725
X250.444Y-102.87
X258.064Y-140.208
X261.62Y-84.201
X262.509Y-123.19
X263.525Y-84.926
X276.479Y-102.87
X280.162Y-84.201
X281.813Y-140.208
X282.448Y-124.333
T3
X156.464Y-70.612
X156.464Y-73.152
X159.004Y-70.612
X159.004Y-73.152
X161.544Y-70.612
X161.544Y-73.152
T4
X136.937Y-71.909
X142.717Y-71.909
T5
X171.626Y-84.273
X181.688Y-82.859
X97.331Y-101.147
X107.393Y-102.561
X153.211Y-125.421
X219.915Y-116.006
X163.273Y-124.007
X17.399Y-134.239
X27.559Y-134.239
X209.853Y-117.42
X95.299Y-81.589
X105.361Y-83.003
X59.612Y-95.813
X69.674Y-97.227
X122.985Y-124.007
X133.047Y-125.421
X190.93Y-120.087
X200.992Y-118.673
X190.422Y-81.606
X49.911Y-95.758
X177.751Y-141.279
X248.158Y-76.708
X262.763Y-96.012
X66.47Y-116.006
X76.532Y-117.42
X268.097Y-134.366
X278.257Y-134.366
X258.318Y-76.708
X39.751Y-95.758
X200.484Y-80.192
X41.275Y-134.239
X51.435Y-134.239
X78.535Y-98.48
X88.597Y-99.894
X197.788Y-99.894
X272.923Y-96.012
X200.709Y-137.994
X210.771Y-136.58
X57.58Y-76.255
X67.642Y-77.669
X114.222Y-84.256
X124.284Y-85.67
X207.85Y-98.48
X167.689Y-142.693
X110.92Y-141.533
X120.982Y-142.947
X248.793Y-115.189
X76.376Y-78.922
X86.438Y-80.336
X160.069Y-105.101
X170.131Y-103.687
X28.702Y-76.581
X178.865Y-102.561
X188.927Y-101.147
X226.773Y-95.813
X152.703Y-86.94
X162.765Y-85.526
X258.953Y-115.189
X18.542Y-76.581
X216.711Y-97.227
X20.193Y-115.062
X30.353Y-115.062
X37.592Y-76.581
X47.752Y-76.581
X229.235Y-76.708
X239.395Y-76.708
X267.208Y-76.708
X277.368Y-76.708
X95.328Y-120.087
X209.345Y-78.939
X219.407Y-77.525
X85.266Y-118.673
X46.228Y-115.062
X56.388Y-115.062
X104.062Y-121.34
X172.134Y-122.754
X182.196Y-121.34
X229.743Y-115.189
X239.903Y-115.189
X116.254Y-103.814
X270.129Y-115.189
X280.289Y-115.189
X114.124Y-122.754
X244.221Y-134.366
X254.381Y-134.366
X18.288Y-95.758
X28.448Y-95.758
X236.601Y-95.885
X246.761Y-95.885
X126.316Y-105.228
X80.313Y-137.215
X90.375Y-138.629
T6
X61.224Y-93.474
X67.865Y-91.843
X124.597Y-121.668
X131.238Y-120.037
X191.835Y-117.395
X41.021Y-93.218
X197.261Y-75.515
X47.371Y-90.678
X191.327Y-78.914
X174.528Y-136.602
X197.769Y-113.996
X168.594Y-140.001
X269.367Y-131.826
X275.717Y-129.286
X255.778Y-71.628
X42.545Y-131.699
X48.895Y-129.159
X270.383Y-90.932
X207.548Y-131.903
X112.532Y-139.194
X119.173Y-137.563
X65.833Y-72.285
X122.475Y-80.286
X249.428Y-74.168
X80.147Y-96.141
X204.627Y-93.803
X86.788Y-94.51
X198.693Y-97.202
X68.082Y-113.667
X74.723Y-112.036
X59.192Y-73.916
X115.834Y-81.917
X264.033Y-93.472
X201.614Y-135.302
X210.758Y-114.728
X216.692Y-111.329
X210.25Y-76.247
X18.669Y-131.699
X25.019Y-129.159
X216.184Y-72.848
X153.608Y-84.248
X38.862Y-74.041
X86.878Y-116.334
X105.584Y-97.177
X93.519Y-114.703
X98.943Y-98.808
X160.974Y-102.409
X256.413Y-110.109
X250.063Y-112.649
X166.908Y-99.01
X159.542Y-80.849
X19.812Y-74.041
X274.828Y-71.628
X27.813Y-109.982
X26.162Y-71.501
X154.116Y-122.729
X21.463Y-112.522
X268.478Y-74.168
X160.05Y-119.33
X84.629Y-74.952
X77.988Y-76.583
X45.212Y-71.501
X217.616Y-94.535
X223.55Y-91.136
X231.013Y-112.649
X237.363Y-110.109
X19.558Y-93.218
X25.908Y-90.678
X81.925Y-134.876
X88.566Y-133.245
X179.77Y-99.869
X185.704Y-96.47
X271.399Y-112.649
X53.848Y-109.982
X236.855Y-71.628
X237.871Y-93.345
X251.841Y-129.286
X230.505Y-74.168
X178.973Y-116.663
X245.491Y-131.826
X96.911Y-79.25
X47.498Y-112.522
X112.315Y-117.37
X244.221Y-90.805
X105.674Y-119.001
X173.039Y-120.062
X178.465Y-78.182
X117.866Y-101.475
X172.531Y-81.581
X124.507Y-99.844
X277.749Y-110.109
X103.552Y-77.619
T7
X161.87Y-150.564
X185.514Y-147.242
X103.157Y-147.496
X126.801Y-150.818
T8
X195.453Y-80.899
X119.253Y-84.963
X205.74Y-137.287
X273.177Y-134.366
X267.843Y-96.012
X62.611Y-76.962
X44.831Y-95.758
X158.242Y-124.714
X22.479Y-134.239
X214.884Y-116.713
X102.362Y-101.854
X253.873Y-115.189
X81.407Y-79.629
X42.672Y-76.581
X157.734Y-86.233
X272.288Y-76.708
X90.297Y-119.38
X214.376Y-78.232
X25.273Y-115.062
X23.622Y-76.581
X165.1Y-104.394
X234.823Y-115.189
X183.896Y-101.854
X221.742Y-96.52
X241.681Y-95.885
X177.165Y-122.047
X249.301Y-134.366
X23.368Y-95.758
X100.33Y-82.296
X121.285Y-104.521
X176.657Y-83.566
X85.344Y-137.922
X109.093Y-122.047
X234.315Y-76.708
X51.308Y-115.062
X275.209Y-115.189
X159.749Y-135.473
X183.393Y-132.15
X195.961Y-119.38
X172.72Y-141.986
X128.016Y-124.714
X46.355Y-134.239
X64.643Y-96.52
X83.566Y-99.187
X202.819Y-99.187
X253.238Y-76.708
X71.501Y-116.713
X105.278Y-132.404
X115.951Y-142.24
X128.922Y-135.727
T2
G00X135.507Y-67.959
M15
G01X135.507Y-68.559
M16
G05
G00X135.507Y-71.889
M15
G01X135.507Y-72.989
M16
G05
G00X144.147Y-67.959
M15
G01X144.147Y-68.559
M16
G05
G00X144.147Y-71.889
M15
G01X144.147Y-72.989
M16
G05
T0
M30
