G04 #@! TF.GenerationSoftware,KiCad,Pcbnew,(5.1.4-0-10_14)*
G04 #@! TF.CreationDate,2020-05-03T16:56:18-05:00*
G04 #@! TF.ProjectId,minister,6d696e69-7374-4657-922e-6b696361645f,rev?*
G04 #@! TF.SameCoordinates,Original*
G04 #@! TF.FileFunction,Profile,NP*
%FSLAX46Y46*%
G04 Gerber Fmt 4.6, Leading zero omitted, Abs format (unit mm)*
G04 Created by KiCad (PCBNEW (5.1.4-0-10_14)) date 2020-05-03 16:56:18*
%MOMM*%
%LPD*%
G04 APERTURE LIST*
%ADD10C,0.200000*%
G04 APERTURE END LIST*
D10*
X13590999Y-67047999D02*
X13591000Y-70048000D01*
X226341000Y-144048000D02*
X281091000Y-144048000D01*
X226341000Y-144048000D02*
X224341000Y-144048000D01*
X135128000Y-154686000D02*
X72541000Y-145848000D01*
X135128000Y-154686000D02*
X150135501Y-154680992D01*
X62041000Y-66548000D02*
X224041000Y-66548000D01*
X271091000Y-66548000D02*
X270091000Y-66548000D01*
X270091000Y-66548000D02*
X266591000Y-66548000D01*
X13590999Y-67047999D02*
G75*
G02X14091000Y-66548000I500000J-1D01*
G01*
X57141000Y-66548000D02*
X14091000Y-66548000D01*
X62041000Y-66548000D02*
X57141000Y-66548000D01*
X61741000Y-144048000D02*
X72541000Y-145848000D01*
X60941000Y-144048000D02*
X61741000Y-144048000D01*
X14091000Y-144048000D02*
X60941000Y-144048000D01*
X14091000Y-144048000D02*
G75*
G02X13591000Y-143548000I0J500000D01*
G01*
X13591000Y-139048000D02*
X13591000Y-143548000D01*
X13591000Y-71548000D02*
X13591000Y-139048000D01*
X13591000Y-71548000D02*
X13591000Y-70048000D01*
X285091000Y-108548000D02*
X285091000Y-108048000D01*
X285091000Y-118048000D02*
X285091000Y-108548000D01*
X285091000Y-143548000D02*
X285091000Y-118048000D01*
X285091000Y-143548000D02*
G75*
G02X284591000Y-144048000I-500000J0D01*
G01*
X281091000Y-144048000D02*
X284591000Y-144048000D01*
X216341000Y-145448000D02*
X224341000Y-144048000D01*
X150341000Y-154647999D02*
X216341000Y-145448000D01*
X150135501Y-154680992D02*
X150341000Y-154647999D01*
X281591000Y-66548000D02*
X281091000Y-66548000D01*
X285091000Y-108048000D02*
X285091000Y-107548000D01*
X285091000Y-107548000D02*
X285091000Y-106048000D01*
X285091000Y-106048000D02*
X285091000Y-98548000D01*
X281091000Y-66548000D02*
X280841000Y-66548000D01*
X285091000Y-98548000D02*
X285091000Y-97548000D01*
X285091000Y-97548000D02*
X285091000Y-94048000D01*
X285091000Y-94048000D02*
X285091000Y-93048000D01*
X285091000Y-93048000D02*
X285091000Y-89798000D01*
X271841000Y-66548000D02*
X271091000Y-66548000D01*
X285091000Y-89798000D02*
X285091000Y-88548000D01*
X285091000Y-88548000D02*
X285091000Y-67048000D01*
X266591000Y-66548000D02*
X224041000Y-66548000D01*
X280841000Y-66548000D02*
X271841000Y-66548000D01*
X284591001Y-66547999D02*
G75*
G02X285091000Y-67048000I-1J-500000D01*
G01*
X284591000Y-66548000D02*
X283591000Y-66548000D01*
X283591000Y-66548000D02*
X281591000Y-66548000D01*
M02*
