<svg version="1.1" xmlns="http://www.w3.org/2000/svg" xmlns:xlink="http://www.w3.org/1999/xlink" stroke-linecap="round" stroke-linejoin="round" stroke-width="0" fill-rule="evenodd" width="271.500001mm" height="88.138001mm" viewBox="13590.999 -154686 271500.001 88138.001" id="eOX5JogJUdb1-XzCj3Ez"><g transform="translate(0,-221233.999) scale(1,-1)" fill="currentColor" stroke="currentColor"><path d="M 13590.999 -67047.999 13591 -70048 13591 -71548 13591 -139048 13591 -143548 A 500 500 0 0 1 14091 -144048 L 60941 -144048 61741 -144048 72541 -145848 135128 -154686 150135.501 -154680.992 150341 -154647.999 216341 -145448 224341 -144048 226341 -144048 281091 -144048 284591 -144048 A 500 500 0 0 1 285091 -143548 L 285091 -118048 285091 -108548 285091 -108048 285091 -107548 285091 -106048 285091 -98548 285091 -97548 285091 -94048 285091 -93048 285091 -89798 285091 -88548 285091 -67048 A 500 500 0 0 1 284591 -66548 L 283591 -66548 281591 -66548 281091 -66548 280841 -66548 271841 -66548 271091 -66548 270091 -66548 266591 -66548 224041 -66548 62041 -66548 57141 -66548 14091 -66548 A 500 500 0 0 1 13590.999 -67047.999" fill="none" stroke-width="200"/></g></svg>