<svg version="1.1" xmlns="http://www.w3.org/2000/svg" xmlns:xlink="http://www.w3.org/1999/xlink" stroke-linecap="round" stroke-linejoin="round" stroke-width="0" fill-rule="evenodd" width="266.124mm" height="84.683mm" viewBox="16524 -152342 266124 84683" id="yl0v7LDbspmSPIJ8z5CE"><defs><circle cx="0" cy="0" r="200" id="yl0v7LDbspmSPIJ8z5CE_pad-1"/><circle cx="0" cy="0" r="508" id="yl0v7LDbspmSPIJ8z5CE_pad-3"/><circle cx="0" cy="0" r="325" id="yl0v7LDbspmSPIJ8z5CE_pad-4"/><circle cx="0" cy="0" r="875" id="yl0v7LDbspmSPIJ8z5CE_pad-5"/><circle cx="0" cy="0" r="1500" id="yl0v7LDbspmSPIJ8z5CE_pad-6"/><circle cx="0" cy="0" r="1524" id="yl0v7LDbspmSPIJ8z5CE_pad-7"/><circle cx="0" cy="0" r="1994" id="yl0v7LDbspmSPIJ8z5CE_pad-8"/></defs><g transform="translate(0,-220001) scale(1,-1)" fill="currentColor" stroke="currentColor"><use xlink:href="#yl0v7LDbspmSPIJ8z5CE_pad-1" x="18542" y="-99949"/><use xlink:href="#yl0v7LDbspmSPIJ8z5CE_pad-1" x="32004" y="-84328"/><use xlink:href="#yl0v7LDbspmSPIJ8z5CE_pad-1" x="32258" y="-103124"/><use xlink:href="#yl0v7LDbspmSPIJ8z5CE_pad-1" x="33274" y="-139573"/><use xlink:href="#yl0v7LDbspmSPIJ8z5CE_pad-1" x="34290" y="-122555"/><use xlink:href="#yl0v7LDbspmSPIJ8z5CE_pad-1" x="39497" y="-100711"/><use xlink:href="#yl0v7LDbspmSPIJ8z5CE_pad-1" x="51054" y="-84328"/><use xlink:href="#yl0v7LDbspmSPIJ8z5CE_pad-1" x="53340" y="-103124"/><use xlink:href="#yl0v7LDbspmSPIJ8z5CE_pad-1" x="57658" y="-141605"/><use xlink:href="#yl0v7LDbspmSPIJ8z5CE_pad-1" x="60071" y="-122555"/><use xlink:href="#yl0v7LDbspmSPIJ8z5CE_pad-1" x="60452" y="-101473"/><use xlink:href="#yl0v7LDbspmSPIJ8z5CE_pad-1" x="62230" y="-129413"/><use xlink:href="#yl0v7LDbspmSPIJ8z5CE_pad-1" x="67310" y="-104521"/><use xlink:href="#yl0v7LDbspmSPIJ8z5CE_pad-1" x="70485" y="-86360"/><use xlink:href="#yl0v7LDbspmSPIJ8z5CE_pad-1" x="72009" y="-106299"/><use xlink:href="#yl0v7LDbspmSPIJ8z5CE_pad-1" x="78105" y="-103759"/><use xlink:href="#yl0v7LDbspmSPIJ8z5CE_pad-1" x="79121" y="-125603"/><use xlink:href="#yl0v7LDbspmSPIJ8z5CE_pad-1" x="89154" y="-89408"/><use xlink:href="#yl0v7LDbspmSPIJ8z5CE_pad-1" x="91313" y="-108839"/><use xlink:href="#yl0v7LDbspmSPIJ8z5CE_pad-1" x="95758" y="-144653"/><use xlink:href="#yl0v7LDbspmSPIJ8z5CE_pad-1" x="97917" y="-129032"/><use xlink:href="#yl0v7LDbspmSPIJ8z5CE_pad-1" x="99949" y="-108114"/><use xlink:href="#yl0v7LDbspmSPIJ8z5CE_pad-1" x="107950" y="-92329"/><use xlink:href="#yl0v7LDbspmSPIJ8z5CE_pad-1" x="110109" y="-111887"/><use xlink:href="#yl0v7LDbspmSPIJ8z5CE_pad-1" x="116332" y="-149987"/><use xlink:href="#yl0v7LDbspmSPIJ8z5CE_pad-1" x="116713" y="-111162"/><use xlink:href="#yl0v7LDbspmSPIJ8z5CE_pad-1" x="116840" y="-129032"/><use xlink:href="#yl0v7LDbspmSPIJ8z5CE_pad-1" x="121285" y="-148717"/><use xlink:href="#yl0v7LDbspmSPIJ8z5CE_pad-1" x="121412" y="-72263"/><use xlink:href="#yl0v7LDbspmSPIJ8z5CE_pad-1" x="126365" y="-93726"/><use xlink:href="#yl0v7LDbspmSPIJ8z5CE_pad-1" x="127889" y="-115824"/><use xlink:href="#yl0v7LDbspmSPIJ8z5CE_pad-1" x="131318" y="-79375"/><use xlink:href="#yl0v7LDbspmSPIJ8z5CE_pad-1" x="131953" y="-85979"/><use xlink:href="#yl0v7LDbspmSPIJ8z5CE_pad-1" x="133096" y="-105918"/><use xlink:href="#yl0v7LDbspmSPIJ8z5CE_pad-1" x="135509" y="-102362"/><use xlink:href="#yl0v7LDbspmSPIJ8z5CE_pad-1" x="135636" y="-113665"/><use xlink:href="#yl0v7LDbspmSPIJ8z5CE_pad-1" x="135636" y="-130937"/><use xlink:href="#yl0v7LDbspmSPIJ8z5CE_pad-1" x="136017" y="-104013"/><use xlink:href="#yl0v7LDbspmSPIJ8z5CE_pad-1" x="136652" y="-81280"/><use xlink:href="#yl0v7LDbspmSPIJ8z5CE_pad-1" x="137922" y="-110744"/><use xlink:href="#yl0v7LDbspmSPIJ8z5CE_pad-1" x="138176" y="-112776"/><use xlink:href="#yl0v7LDbspmSPIJ8z5CE_pad-1" x="138430" y="-111760"/><use xlink:href="#yl0v7LDbspmSPIJ8z5CE_pad-1" x="138938" y="-113538"/><use xlink:href="#yl0v7LDbspmSPIJ8z5CE_pad-1" x="139192" y="-114681"/><use xlink:href="#yl0v7LDbspmSPIJ8z5CE_pad-1" x="139573" y="-97917"/><use xlink:href="#yl0v7LDbspmSPIJ8z5CE_pad-1" x="139954" y="-100330"/><use xlink:href="#yl0v7LDbspmSPIJ8z5CE_pad-1" x="140462" y="-106172"/><use xlink:href="#yl0v7LDbspmSPIJ8z5CE_pad-1" x="140589" y="-114681"/><use xlink:href="#yl0v7LDbspmSPIJ8z5CE_pad-1" x="140793" y="-97894"/><use xlink:href="#yl0v7LDbspmSPIJ8z5CE_pad-1" x="141224" y="-91059"/><use xlink:href="#yl0v7LDbspmSPIJ8z5CE_pad-1" x="141383" y="-98701"/><use xlink:href="#yl0v7LDbspmSPIJ8z5CE_pad-1" x="141478" y="-150114"/><use xlink:href="#yl0v7LDbspmSPIJ8z5CE_pad-1" x="143002" y="-81280"/><use xlink:href="#yl0v7LDbspmSPIJ8z5CE_pad-1" x="143002" y="-105156"/><use xlink:href="#yl0v7LDbspmSPIJ8z5CE_pad-1" x="143256" y="-91059"/><use xlink:href="#yl0v7LDbspmSPIJ8z5CE_pad-1" x="143383" y="-103124"/><use xlink:href="#yl0v7LDbspmSPIJ8z5CE_pad-1" x="143510" y="-97917"/><use xlink:href="#yl0v7LDbspmSPIJ8z5CE_pad-1" x="144145" y="-115951"/><use xlink:href="#yl0v7LDbspmSPIJ8z5CE_pad-1" x="145161" y="-91059"/><use xlink:href="#yl0v7LDbspmSPIJ8z5CE_pad-1" x="145415" y="-102235"/><use xlink:href="#yl0v7LDbspmSPIJ8z5CE_pad-1" x="145542" y="-103251"/><use xlink:href="#yl0v7LDbspmSPIJ8z5CE_pad-1" x="146939" y="-85979"/><use xlink:href="#yl0v7LDbspmSPIJ8z5CE_pad-1" x="147828" y="-129667"/><use xlink:href="#yl0v7LDbspmSPIJ8z5CE_pad-1" x="149225" y="-100711"/><use xlink:href="#yl0v7LDbspmSPIJ8z5CE_pad-1" x="149479" y="-107315"/><use xlink:href="#yl0v7LDbspmSPIJ8z5CE_pad-1" x="149606" y="-70866"/><use xlink:href="#yl0v7LDbspmSPIJ8z5CE_pad-1" x="149855" y="-118232"/><use xlink:href="#yl0v7LDbspmSPIJ8z5CE_pad-1" x="149987" y="-144526"/><use xlink:href="#yl0v7LDbspmSPIJ8z5CE_pad-1" x="150876" y="-99822"/><use xlink:href="#yl0v7LDbspmSPIJ8z5CE_pad-1" x="151003" y="-77978"/><use xlink:href="#yl0v7LDbspmSPIJ8z5CE_pad-1" x="151765" y="-100584"/><use xlink:href="#yl0v7LDbspmSPIJ8z5CE_pad-1" x="152019" y="-78359"/><use xlink:href="#yl0v7LDbspmSPIJ8z5CE_pad-1" x="152146" y="-109982"/><use xlink:href="#yl0v7LDbspmSPIJ8z5CE_pad-1" x="152781" y="-99568"/><use xlink:href="#yl0v7LDbspmSPIJ8z5CE_pad-1" x="152908" y="-95631"/><use xlink:href="#yl0v7LDbspmSPIJ8z5CE_pad-1" x="153670" y="-100076"/><use xlink:href="#yl0v7LDbspmSPIJ8z5CE_pad-1" x="154686" y="-99568"/><use xlink:href="#yl0v7LDbspmSPIJ8z5CE_pad-1" x="155448" y="-98552"/><use xlink:href="#yl0v7LDbspmSPIJ8z5CE_pad-1" x="156181" y="-99486"/><use xlink:href="#yl0v7LDbspmSPIJ8z5CE_pad-1" x="157988" y="-108585"/><use xlink:href="#yl0v7LDbspmSPIJ8z5CE_pad-1" x="167005" y="-93726"/><use xlink:href="#yl0v7LDbspmSPIJ8z5CE_pad-1" x="167386" y="-130937"/><use xlink:href="#yl0v7LDbspmSPIJ8z5CE_pad-1" x="172220" y="-95893"/><use xlink:href="#yl0v7LDbspmSPIJ8z5CE_pad-1" x="174244" y="-111797"/><use xlink:href="#yl0v7LDbspmSPIJ8z5CE_pad-1" x="176784" y="-70612"/><use xlink:href="#yl0v7LDbspmSPIJ8z5CE_pad-1" x="181991" y="-145669"/><use xlink:href="#yl0v7LDbspmSPIJ8z5CE_pad-1" x="185674" y="-89281"/><use xlink:href="#yl0v7LDbspmSPIJ8z5CE_pad-1" x="185928" y="-127381"/><use xlink:href="#yl0v7LDbspmSPIJ8z5CE_pad-1" x="193167" y="-108839"/><use xlink:href="#yl0v7LDbspmSPIJ8z5CE_pad-1" x="194818" y="-92081"/><use xlink:href="#yl0v7LDbspmSPIJ8z5CE_pad-1" x="204724" y="-86995"/><use xlink:href="#yl0v7LDbspmSPIJ8z5CE_pad-1" x="205105" y="-124714"/><use xlink:href="#yl0v7LDbspmSPIJ8z5CE_pad-1" x="212217" y="-104902"/><use xlink:href="#yl0v7LDbspmSPIJ8z5CE_pad-1" x="212598" y="-89345"/><use xlink:href="#yl0v7LDbspmSPIJ8z5CE_pad-1" x="215138" y="-143129"/><use xlink:href="#yl0v7LDbspmSPIJ8z5CE_pad-1" x="223520" y="-84201"/><use xlink:href="#yl0v7LDbspmSPIJ8z5CE_pad-1" x="224028" y="-124714"/><use xlink:href="#yl0v7LDbspmSPIJ8z5CE_pad-1" x="227584" y="-131826"/><use xlink:href="#yl0v7LDbspmSPIJ8z5CE_pad-1" x="227711" y="-86450"/><use xlink:href="#yl0v7LDbspmSPIJ8z5CE_pad-1" x="231267" y="-103886"/><use xlink:href="#yl0v7LDbspmSPIJ8z5CE_pad-1" x="242824" y="-84201"/><use xlink:href="#yl0v7LDbspmSPIJ8z5CE_pad-1" x="243205" y="-123190"/><use xlink:href="#yl0v7LDbspmSPIJ8z5CE_pad-1" x="246634" y="-85725"/><use xlink:href="#yl0v7LDbspmSPIJ8z5CE_pad-1" x="250444" y="-102870"/><use xlink:href="#yl0v7LDbspmSPIJ8z5CE_pad-1" x="258064" y="-140208"/><use xlink:href="#yl0v7LDbspmSPIJ8z5CE_pad-1" x="261620" y="-84201"/><use xlink:href="#yl0v7LDbspmSPIJ8z5CE_pad-1" x="262509" y="-123190"/><use xlink:href="#yl0v7LDbspmSPIJ8z5CE_pad-1" x="263525" y="-84926"/><use xlink:href="#yl0v7LDbspmSPIJ8z5CE_pad-1" x="276479" y="-102870"/><use xlink:href="#yl0v7LDbspmSPIJ8z5CE_pad-1" x="280162" y="-84201"/><use xlink:href="#yl0v7LDbspmSPIJ8z5CE_pad-1" x="281813" y="-140208"/><use xlink:href="#yl0v7LDbspmSPIJ8z5CE_pad-1" x="282448" y="-124333"/><use xlink:href="#yl0v7LDbspmSPIJ8z5CE_pad-3" x="156464" y="-70612"/><use xlink:href="#yl0v7LDbspmSPIJ8z5CE_pad-3" x="156464" y="-73152"/><use xlink:href="#yl0v7LDbspmSPIJ8z5CE_pad-3" x="159004" y="-70612"/><use xlink:href="#yl0v7LDbspmSPIJ8z5CE_pad-3" x="159004" y="-73152"/><use xlink:href="#yl0v7LDbspmSPIJ8z5CE_pad-3" x="161544" y="-70612"/><use xlink:href="#yl0v7LDbspmSPIJ8z5CE_pad-3" x="161544" y="-73152"/><use xlink:href="#yl0v7LDbspmSPIJ8z5CE_pad-4" x="136937" y="-71909"/><use xlink:href="#yl0v7LDbspmSPIJ8z5CE_pad-4" x="142717" y="-71909"/><use xlink:href="#yl0v7LDbspmSPIJ8z5CE_pad-5" x="171626" y="-84273"/><use xlink:href="#yl0v7LDbspmSPIJ8z5CE_pad-5" x="181688" y="-82859"/><use xlink:href="#yl0v7LDbspmSPIJ8z5CE_pad-5" x="97331" y="-101147"/><use xlink:href="#yl0v7LDbspmSPIJ8z5CE_pad-5" x="107393" y="-102561"/><use xlink:href="#yl0v7LDbspmSPIJ8z5CE_pad-5" x="153211" y="-125421"/><use xlink:href="#yl0v7LDbspmSPIJ8z5CE_pad-5" x="219915" y="-116006"/><use xlink:href="#yl0v7LDbspmSPIJ8z5CE_pad-5" x="163273" y="-124007"/><use xlink:href="#yl0v7LDbspmSPIJ8z5CE_pad-5" x="17399" y="-134239"/><use xlink:href="#yl0v7LDbspmSPIJ8z5CE_pad-5" x="27559" y="-134239"/><use xlink:href="#yl0v7LDbspmSPIJ8z5CE_pad-5" x="209853" y="-117420"/><use xlink:href="#yl0v7LDbspmSPIJ8z5CE_pad-5" x="95299" y="-81589"/><use xlink:href="#yl0v7LDbspmSPIJ8z5CE_pad-5" x="105361" y="-83003"/><use xlink:href="#yl0v7LDbspmSPIJ8z5CE_pad-5" x="59612" y="-95813"/><use xlink:href="#yl0v7LDbspmSPIJ8z5CE_pad-5" x="69674" y="-97227"/><use xlink:href="#yl0v7LDbspmSPIJ8z5CE_pad-5" x="122985" y="-124007"/><use xlink:href="#yl0v7LDbspmSPIJ8z5CE_pad-5" x="133047" y="-125421"/><use xlink:href="#yl0v7LDbspmSPIJ8z5CE_pad-5" x="190930" y="-120087"/><use xlink:href="#yl0v7LDbspmSPIJ8z5CE_pad-5" x="200992" y="-118673"/><use xlink:href="#yl0v7LDbspmSPIJ8z5CE_pad-5" x="190422" y="-81606"/><use xlink:href="#yl0v7LDbspmSPIJ8z5CE_pad-5" x="49911" y="-95758"/><use xlink:href="#yl0v7LDbspmSPIJ8z5CE_pad-5" x="177751" y="-141279"/><use xlink:href="#yl0v7LDbspmSPIJ8z5CE_pad-5" x="248158" y="-76708"/><use xlink:href="#yl0v7LDbspmSPIJ8z5CE_pad-5" x="262763" y="-96012"/><use xlink:href="#yl0v7LDbspmSPIJ8z5CE_pad-5" x="66470" y="-116006"/><use xlink:href="#yl0v7LDbspmSPIJ8z5CE_pad-5" x="76532" y="-117420"/><use xlink:href="#yl0v7LDbspmSPIJ8z5CE_pad-5" x="268097" y="-134366"/><use xlink:href="#yl0v7LDbspmSPIJ8z5CE_pad-5" x="278257" y="-134366"/><use xlink:href="#yl0v7LDbspmSPIJ8z5CE_pad-5" x="258318" y="-76708"/><use xlink:href="#yl0v7LDbspmSPIJ8z5CE_pad-5" x="39751" y="-95758"/><use xlink:href="#yl0v7LDbspmSPIJ8z5CE_pad-5" x="200484" y="-80192"/><use xlink:href="#yl0v7LDbspmSPIJ8z5CE_pad-5" x="41275" y="-134239"/><use xlink:href="#yl0v7LDbspmSPIJ8z5CE_pad-5" x="51435" y="-134239"/><use xlink:href="#yl0v7LDbspmSPIJ8z5CE_pad-5" x="78535" y="-98480"/><use xlink:href="#yl0v7LDbspmSPIJ8z5CE_pad-5" x="88597" y="-99894"/><use xlink:href="#yl0v7LDbspmSPIJ8z5CE_pad-5" x="197788" y="-99894"/><use xlink:href="#yl0v7LDbspmSPIJ8z5CE_pad-5" x="272923" y="-96012"/><use xlink:href="#yl0v7LDbspmSPIJ8z5CE_pad-5" x="200709" y="-137994"/><use xlink:href="#yl0v7LDbspmSPIJ8z5CE_pad-5" x="210771" y="-136580"/><use xlink:href="#yl0v7LDbspmSPIJ8z5CE_pad-5" x="57580" y="-76255"/><use xlink:href="#yl0v7LDbspmSPIJ8z5CE_pad-5" x="67642" y="-77669"/><use xlink:href="#yl0v7LDbspmSPIJ8z5CE_pad-5" x="114222" y="-84256"/><use xlink:href="#yl0v7LDbspmSPIJ8z5CE_pad-5" x="124284" y="-85670"/><use xlink:href="#yl0v7LDbspmSPIJ8z5CE_pad-5" x="207850" y="-98480"/><use xlink:href="#yl0v7LDbspmSPIJ8z5CE_pad-5" x="167689" y="-142693"/><use xlink:href="#yl0v7LDbspmSPIJ8z5CE_pad-5" x="110920" y="-141533"/><use xlink:href="#yl0v7LDbspmSPIJ8z5CE_pad-5" x="120982" y="-142947"/><use xlink:href="#yl0v7LDbspmSPIJ8z5CE_pad-5" x="248793" y="-115189"/><use xlink:href="#yl0v7LDbspmSPIJ8z5CE_pad-5" x="76376" y="-78922"/><use xlink:href="#yl0v7LDbspmSPIJ8z5CE_pad-5" x="86438" y="-80336"/><use xlink:href="#yl0v7LDbspmSPIJ8z5CE_pad-5" x="160069" y="-105101"/><use xlink:href="#yl0v7LDbspmSPIJ8z5CE_pad-5" x="170131" y="-103687"/><use xlink:href="#yl0v7LDbspmSPIJ8z5CE_pad-5" x="28702" y="-76581"/><use xlink:href="#yl0v7LDbspmSPIJ8z5CE_pad-5" x="178865" y="-102561"/><use xlink:href="#yl0v7LDbspmSPIJ8z5CE_pad-5" x="188927" y="-101147"/><use xlink:href="#yl0v7LDbspmSPIJ8z5CE_pad-5" x="226773" y="-95813"/><use xlink:href="#yl0v7LDbspmSPIJ8z5CE_pad-5" x="152703" y="-86940"/><use xlink:href="#yl0v7LDbspmSPIJ8z5CE_pad-5" x="162765" y="-85526"/><use xlink:href="#yl0v7LDbspmSPIJ8z5CE_pad-5" x="258953" y="-115189"/><use xlink:href="#yl0v7LDbspmSPIJ8z5CE_pad-5" x="18542" y="-76581"/><use xlink:href="#yl0v7LDbspmSPIJ8z5CE_pad-5" x="216711" y="-97227"/><use xlink:href="#yl0v7LDbspmSPIJ8z5CE_pad-5" x="20193" y="-115062"/><use xlink:href="#yl0v7LDbspmSPIJ8z5CE_pad-5" x="30353" y="-115062"/><use xlink:href="#yl0v7LDbspmSPIJ8z5CE_pad-5" x="37592" y="-76581"/><use xlink:href="#yl0v7LDbspmSPIJ8z5CE_pad-5" x="47752" y="-76581"/><use xlink:href="#yl0v7LDbspmSPIJ8z5CE_pad-5" x="229235" y="-76708"/><use xlink:href="#yl0v7LDbspmSPIJ8z5CE_pad-5" x="239395" y="-76708"/><use xlink:href="#yl0v7LDbspmSPIJ8z5CE_pad-5" x="267208" y="-76708"/><use xlink:href="#yl0v7LDbspmSPIJ8z5CE_pad-5" x="277368" y="-76708"/><use xlink:href="#yl0v7LDbspmSPIJ8z5CE_pad-5" x="95328" y="-120087"/><use xlink:href="#yl0v7LDbspmSPIJ8z5CE_pad-5" x="209345" y="-78939"/><use xlink:href="#yl0v7LDbspmSPIJ8z5CE_pad-5" x="219407" y="-77525"/><use xlink:href="#yl0v7LDbspmSPIJ8z5CE_pad-5" x="85266" y="-118673"/><use xlink:href="#yl0v7LDbspmSPIJ8z5CE_pad-5" x="46228" y="-115062"/><use xlink:href="#yl0v7LDbspmSPIJ8z5CE_pad-5" x="56388" y="-115062"/><use xlink:href="#yl0v7LDbspmSPIJ8z5CE_pad-5" x="104062" y="-121340"/><use xlink:href="#yl0v7LDbspmSPIJ8z5CE_pad-5" x="172134" y="-122754"/><use xlink:href="#yl0v7LDbspmSPIJ8z5CE_pad-5" x="182196" y="-121340"/><use xlink:href="#yl0v7LDbspmSPIJ8z5CE_pad-5" x="229743" y="-115189"/><use xlink:href="#yl0v7LDbspmSPIJ8z5CE_pad-5" x="239903" y="-115189"/><use xlink:href="#yl0v7LDbspmSPIJ8z5CE_pad-5" x="116254" y="-103814"/><use xlink:href="#yl0v7LDbspmSPIJ8z5CE_pad-5" x="270129" y="-115189"/><use xlink:href="#yl0v7LDbspmSPIJ8z5CE_pad-5" x="280289" y="-115189"/><use xlink:href="#yl0v7LDbspmSPIJ8z5CE_pad-5" x="114124" y="-122754"/><use xlink:href="#yl0v7LDbspmSPIJ8z5CE_pad-5" x="244221" y="-134366"/><use xlink:href="#yl0v7LDbspmSPIJ8z5CE_pad-5" x="254381" y="-134366"/><use xlink:href="#yl0v7LDbspmSPIJ8z5CE_pad-5" x="18288" y="-95758"/><use xlink:href="#yl0v7LDbspmSPIJ8z5CE_pad-5" x="28448" y="-95758"/><use xlink:href="#yl0v7LDbspmSPIJ8z5CE_pad-5" x="236601" y="-95885"/><use xlink:href="#yl0v7LDbspmSPIJ8z5CE_pad-5" x="246761" y="-95885"/><use xlink:href="#yl0v7LDbspmSPIJ8z5CE_pad-5" x="126316" y="-105228"/><use xlink:href="#yl0v7LDbspmSPIJ8z5CE_pad-5" x="80313" y="-137215"/><use xlink:href="#yl0v7LDbspmSPIJ8z5CE_pad-5" x="90375" y="-138629"/><use xlink:href="#yl0v7LDbspmSPIJ8z5CE_pad-6" x="61224" y="-93474"/><use xlink:href="#yl0v7LDbspmSPIJ8z5CE_pad-6" x="67865" y="-91843"/><use xlink:href="#yl0v7LDbspmSPIJ8z5CE_pad-6" x="124597" y="-121668"/><use xlink:href="#yl0v7LDbspmSPIJ8z5CE_pad-6" x="131238" y="-120037"/><use xlink:href="#yl0v7LDbspmSPIJ8z5CE_pad-6" x="191835" y="-117395"/><use xlink:href="#yl0v7LDbspmSPIJ8z5CE_pad-6" x="41021" y="-93218"/><use xlink:href="#yl0v7LDbspmSPIJ8z5CE_pad-6" x="197261" y="-75515"/><use xlink:href="#yl0v7LDbspmSPIJ8z5CE_pad-6" x="47371" y="-90678"/><use xlink:href="#yl0v7LDbspmSPIJ8z5CE_pad-6" x="191327" y="-78914"/><use xlink:href="#yl0v7LDbspmSPIJ8z5CE_pad-6" x="174528" y="-136602"/><use xlink:href="#yl0v7LDbspmSPIJ8z5CE_pad-6" x="197769" y="-113996"/><use xlink:href="#yl0v7LDbspmSPIJ8z5CE_pad-6" x="168594" y="-140001"/><use xlink:href="#yl0v7LDbspmSPIJ8z5CE_pad-6" x="269367" y="-131826"/><use xlink:href="#yl0v7LDbspmSPIJ8z5CE_pad-6" x="275717" y="-129286"/><use xlink:href="#yl0v7LDbspmSPIJ8z5CE_pad-6" x="255778" y="-71628"/><use xlink:href="#yl0v7LDbspmSPIJ8z5CE_pad-6" x="42545" y="-131699"/><use xlink:href="#yl0v7LDbspmSPIJ8z5CE_pad-6" x="48895" y="-129159"/><use xlink:href="#yl0v7LDbspmSPIJ8z5CE_pad-6" x="270383" y="-90932"/><use xlink:href="#yl0v7LDbspmSPIJ8z5CE_pad-6" x="207548" y="-131903"/><use xlink:href="#yl0v7LDbspmSPIJ8z5CE_pad-6" x="112532" y="-139194"/><use xlink:href="#yl0v7LDbspmSPIJ8z5CE_pad-6" x="119173" y="-137563"/><use xlink:href="#yl0v7LDbspmSPIJ8z5CE_pad-6" x="65833" y="-72285"/><use xlink:href="#yl0v7LDbspmSPIJ8z5CE_pad-6" x="122475" y="-80286"/><use xlink:href="#yl0v7LDbspmSPIJ8z5CE_pad-6" x="249428" y="-74168"/><use xlink:href="#yl0v7LDbspmSPIJ8z5CE_pad-6" x="80147" y="-96141"/><use xlink:href="#yl0v7LDbspmSPIJ8z5CE_pad-6" x="204627" y="-93803"/><use xlink:href="#yl0v7LDbspmSPIJ8z5CE_pad-6" x="86788" y="-94510"/><use xlink:href="#yl0v7LDbspmSPIJ8z5CE_pad-6" x="198693" y="-97202"/><use xlink:href="#yl0v7LDbspmSPIJ8z5CE_pad-6" x="68082" y="-113667"/><use xlink:href="#yl0v7LDbspmSPIJ8z5CE_pad-6" x="74723" y="-112036"/><use xlink:href="#yl0v7LDbspmSPIJ8z5CE_pad-6" x="59192" y="-73916"/><use xlink:href="#yl0v7LDbspmSPIJ8z5CE_pad-6" x="115834" y="-81917"/><use xlink:href="#yl0v7LDbspmSPIJ8z5CE_pad-6" x="264033" y="-93472"/><use xlink:href="#yl0v7LDbspmSPIJ8z5CE_pad-6" x="201614" y="-135302"/><use xlink:href="#yl0v7LDbspmSPIJ8z5CE_pad-6" x="210758" y="-114728"/><use xlink:href="#yl0v7LDbspmSPIJ8z5CE_pad-6" x="216692" y="-111329"/><use xlink:href="#yl0v7LDbspmSPIJ8z5CE_pad-6" x="210250" y="-76247"/><use xlink:href="#yl0v7LDbspmSPIJ8z5CE_pad-6" x="18669" y="-131699"/><use xlink:href="#yl0v7LDbspmSPIJ8z5CE_pad-6" x="25019" y="-129159"/><use xlink:href="#yl0v7LDbspmSPIJ8z5CE_pad-6" x="216184" y="-72848"/><use xlink:href="#yl0v7LDbspmSPIJ8z5CE_pad-6" x="153608" y="-84248"/><use xlink:href="#yl0v7LDbspmSPIJ8z5CE_pad-6" x="38862" y="-74041"/><use xlink:href="#yl0v7LDbspmSPIJ8z5CE_pad-6" x="86878" y="-116334"/><use xlink:href="#yl0v7LDbspmSPIJ8z5CE_pad-6" x="105584" y="-97177"/><use xlink:href="#yl0v7LDbspmSPIJ8z5CE_pad-6" x="93519" y="-114703"/><use xlink:href="#yl0v7LDbspmSPIJ8z5CE_pad-6" x="98943" y="-98808"/><use xlink:href="#yl0v7LDbspmSPIJ8z5CE_pad-6" x="160974" y="-102409"/><use xlink:href="#yl0v7LDbspmSPIJ8z5CE_pad-6" x="256413" y="-110109"/><use xlink:href="#yl0v7LDbspmSPIJ8z5CE_pad-6" x="250063" y="-112649"/><use xlink:href="#yl0v7LDbspmSPIJ8z5CE_pad-6" x="166908" y="-99010"/><use xlink:href="#yl0v7LDbspmSPIJ8z5CE_pad-6" x="159542" y="-80849"/><use xlink:href="#yl0v7LDbspmSPIJ8z5CE_pad-6" x="19812" y="-74041"/><use xlink:href="#yl0v7LDbspmSPIJ8z5CE_pad-6" x="274828" y="-71628"/><use xlink:href="#yl0v7LDbspmSPIJ8z5CE_pad-6" x="27813" y="-109982"/><use xlink:href="#yl0v7LDbspmSPIJ8z5CE_pad-6" x="26162" y="-71501"/><use xlink:href="#yl0v7LDbspmSPIJ8z5CE_pad-6" x="154116" y="-122729"/><use xlink:href="#yl0v7LDbspmSPIJ8z5CE_pad-6" x="21463" y="-112522"/><use xlink:href="#yl0v7LDbspmSPIJ8z5CE_pad-6" x="268478" y="-74168"/><use xlink:href="#yl0v7LDbspmSPIJ8z5CE_pad-6" x="160050" y="-119330"/><use xlink:href="#yl0v7LDbspmSPIJ8z5CE_pad-6" x="84629" y="-74952"/><use xlink:href="#yl0v7LDbspmSPIJ8z5CE_pad-6" x="77988" y="-76583"/><use xlink:href="#yl0v7LDbspmSPIJ8z5CE_pad-6" x="45212" y="-71501"/><use xlink:href="#yl0v7LDbspmSPIJ8z5CE_pad-6" x="217616" y="-94535"/><use xlink:href="#yl0v7LDbspmSPIJ8z5CE_pad-6" x="223550" y="-91136"/><use xlink:href="#yl0v7LDbspmSPIJ8z5CE_pad-6" x="231013" y="-112649"/><use xlink:href="#yl0v7LDbspmSPIJ8z5CE_pad-6" x="237363" y="-110109"/><use xlink:href="#yl0v7LDbspmSPIJ8z5CE_pad-6" x="19558" y="-93218"/><use xlink:href="#yl0v7LDbspmSPIJ8z5CE_pad-6" x="25908" y="-90678"/><use xlink:href="#yl0v7LDbspmSPIJ8z5CE_pad-6" x="81925" y="-134876"/><use xlink:href="#yl0v7LDbspmSPIJ8z5CE_pad-6" x="88566" y="-133245"/><use xlink:href="#yl0v7LDbspmSPIJ8z5CE_pad-6" x="179770" y="-99869"/><use xlink:href="#yl0v7LDbspmSPIJ8z5CE_pad-6" x="185704" y="-96470"/><use xlink:href="#yl0v7LDbspmSPIJ8z5CE_pad-6" x="271399" y="-112649"/><use xlink:href="#yl0v7LDbspmSPIJ8z5CE_pad-6" x="53848" y="-109982"/><use xlink:href="#yl0v7LDbspmSPIJ8z5CE_pad-6" x="236855" y="-71628"/><use xlink:href="#yl0v7LDbspmSPIJ8z5CE_pad-6" x="237871" y="-93345"/><use xlink:href="#yl0v7LDbspmSPIJ8z5CE_pad-6" x="251841" y="-129286"/><use xlink:href="#yl0v7LDbspmSPIJ8z5CE_pad-6" x="230505" y="-74168"/><use xlink:href="#yl0v7LDbspmSPIJ8z5CE_pad-6" x="178973" y="-116663"/><use xlink:href="#yl0v7LDbspmSPIJ8z5CE_pad-6" x="245491" y="-131826"/><use xlink:href="#yl0v7LDbspmSPIJ8z5CE_pad-6" x="96911" y="-79250"/><use xlink:href="#yl0v7LDbspmSPIJ8z5CE_pad-6" x="47498" y="-112522"/><use xlink:href="#yl0v7LDbspmSPIJ8z5CE_pad-6" x="112315" y="-117370"/><use xlink:href="#yl0v7LDbspmSPIJ8z5CE_pad-6" x="244221" y="-90805"/><use xlink:href="#yl0v7LDbspmSPIJ8z5CE_pad-6" x="105674" y="-119001"/><use xlink:href="#yl0v7LDbspmSPIJ8z5CE_pad-6" x="173039" y="-120062"/><use xlink:href="#yl0v7LDbspmSPIJ8z5CE_pad-6" x="178465" y="-78182"/><use xlink:href="#yl0v7LDbspmSPIJ8z5CE_pad-6" x="117866" y="-101475"/><use xlink:href="#yl0v7LDbspmSPIJ8z5CE_pad-6" x="172531" y="-81581"/><use xlink:href="#yl0v7LDbspmSPIJ8z5CE_pad-6" x="124507" y="-99844"/><use xlink:href="#yl0v7LDbspmSPIJ8z5CE_pad-6" x="277749" y="-110109"/><use xlink:href="#yl0v7LDbspmSPIJ8z5CE_pad-6" x="103552" y="-77619"/><use xlink:href="#yl0v7LDbspmSPIJ8z5CE_pad-7" x="161870" y="-150564"/><use xlink:href="#yl0v7LDbspmSPIJ8z5CE_pad-7" x="185514" y="-147242"/><use xlink:href="#yl0v7LDbspmSPIJ8z5CE_pad-7" x="103157" y="-147496"/><use xlink:href="#yl0v7LDbspmSPIJ8z5CE_pad-7" x="126801" y="-150818"/><use xlink:href="#yl0v7LDbspmSPIJ8z5CE_pad-8" x="195453" y="-80899"/><use xlink:href="#yl0v7LDbspmSPIJ8z5CE_pad-8" x="119253" y="-84963"/><use xlink:href="#yl0v7LDbspmSPIJ8z5CE_pad-8" x="205740" y="-137287"/><use xlink:href="#yl0v7LDbspmSPIJ8z5CE_pad-8" x="273177" y="-134366"/><use xlink:href="#yl0v7LDbspmSPIJ8z5CE_pad-8" x="267843" y="-96012"/><use xlink:href="#yl0v7LDbspmSPIJ8z5CE_pad-8" x="62611" y="-76962"/><use xlink:href="#yl0v7LDbspmSPIJ8z5CE_pad-8" x="44831" y="-95758"/><use xlink:href="#yl0v7LDbspmSPIJ8z5CE_pad-8" x="158242" y="-124714"/><use xlink:href="#yl0v7LDbspmSPIJ8z5CE_pad-8" x="22479" y="-134239"/><use xlink:href="#yl0v7LDbspmSPIJ8z5CE_pad-8" x="214884" y="-116713"/><use xlink:href="#yl0v7LDbspmSPIJ8z5CE_pad-8" x="102362" y="-101854"/><use xlink:href="#yl0v7LDbspmSPIJ8z5CE_pad-8" x="253873" y="-115189"/><use xlink:href="#yl0v7LDbspmSPIJ8z5CE_pad-8" x="81407" y="-79629"/><use xlink:href="#yl0v7LDbspmSPIJ8z5CE_pad-8" x="42672" y="-76581"/><use xlink:href="#yl0v7LDbspmSPIJ8z5CE_pad-8" x="157734" y="-86233"/><use xlink:href="#yl0v7LDbspmSPIJ8z5CE_pad-8" x="272288" y="-76708"/><use xlink:href="#yl0v7LDbspmSPIJ8z5CE_pad-8" x="90297" y="-119380"/><use xlink:href="#yl0v7LDbspmSPIJ8z5CE_pad-8" x="214376" y="-78232"/><use xlink:href="#yl0v7LDbspmSPIJ8z5CE_pad-8" x="25273" y="-115062"/><use xlink:href="#yl0v7LDbspmSPIJ8z5CE_pad-8" x="23622" y="-76581"/><use xlink:href="#yl0v7LDbspmSPIJ8z5CE_pad-8" x="165100" y="-104394"/><use xlink:href="#yl0v7LDbspmSPIJ8z5CE_pad-8" x="234823" y="-115189"/><use xlink:href="#yl0v7LDbspmSPIJ8z5CE_pad-8" x="183896" y="-101854"/><use xlink:href="#yl0v7LDbspmSPIJ8z5CE_pad-8" x="221742" y="-96520"/><use xlink:href="#yl0v7LDbspmSPIJ8z5CE_pad-8" x="241681" y="-95885"/><use xlink:href="#yl0v7LDbspmSPIJ8z5CE_pad-8" x="177165" y="-122047"/><use xlink:href="#yl0v7LDbspmSPIJ8z5CE_pad-8" x="249301" y="-134366"/><use xlink:href="#yl0v7LDbspmSPIJ8z5CE_pad-8" x="23368" y="-95758"/><use xlink:href="#yl0v7LDbspmSPIJ8z5CE_pad-8" x="100330" y="-82296"/><use xlink:href="#yl0v7LDbspmSPIJ8z5CE_pad-8" x="121285" y="-104521"/><use xlink:href="#yl0v7LDbspmSPIJ8z5CE_pad-8" x="176657" y="-83566"/><use xlink:href="#yl0v7LDbspmSPIJ8z5CE_pad-8" x="85344" y="-137922"/><use xlink:href="#yl0v7LDbspmSPIJ8z5CE_pad-8" x="109093" y="-122047"/><use xlink:href="#yl0v7LDbspmSPIJ8z5CE_pad-8" x="234315" y="-76708"/><use xlink:href="#yl0v7LDbspmSPIJ8z5CE_pad-8" x="51308" y="-115062"/><use xlink:href="#yl0v7LDbspmSPIJ8z5CE_pad-8" x="275209" y="-115189"/><use xlink:href="#yl0v7LDbspmSPIJ8z5CE_pad-8" x="159749" y="-135473"/><use xlink:href="#yl0v7LDbspmSPIJ8z5CE_pad-8" x="183393" y="-132150"/><use xlink:href="#yl0v7LDbspmSPIJ8z5CE_pad-8" x="195961" y="-119380"/><use xlink:href="#yl0v7LDbspmSPIJ8z5CE_pad-8" x="172720" y="-141986"/><use xlink:href="#yl0v7LDbspmSPIJ8z5CE_pad-8" x="128016" y="-124714"/><use xlink:href="#yl0v7LDbspmSPIJ8z5CE_pad-8" x="46355" y="-134239"/><use xlink:href="#yl0v7LDbspmSPIJ8z5CE_pad-8" x="64643" y="-96520"/><use xlink:href="#yl0v7LDbspmSPIJ8z5CE_pad-8" x="83566" y="-99187"/><use xlink:href="#yl0v7LDbspmSPIJ8z5CE_pad-8" x="202819" y="-99187"/><use xlink:href="#yl0v7LDbspmSPIJ8z5CE_pad-8" x="253238" y="-76708"/><use xlink:href="#yl0v7LDbspmSPIJ8z5CE_pad-8" x="71501" y="-116713"/><use xlink:href="#yl0v7LDbspmSPIJ8z5CE_pad-8" x="105278" y="-132404"/><use xlink:href="#yl0v7LDbspmSPIJ8z5CE_pad-8" x="115951" y="-142240"/><use xlink:href="#yl0v7LDbspmSPIJ8z5CE_pad-8" x="128922" y="-135727"/><path d="M 135507 -67959 135507 -68559 M 135507 -71889 135507 -72989 M 144147 -67959 144147 -68559 M 144147 -71889 144147 -72989" fill="none" stroke-width="600"/></g></svg>