<svg version="1.1" xmlns="http://www.w3.org/2000/svg" xmlns:xlink="http://www.w3.org/1999/xlink" stroke-linecap="round" stroke-linejoin="round" stroke-width="0" fill-rule="evenodd" width="264.742mm" height="85.246471mm" viewBox="16473 -152393.471 264742 85246.471" id="Ht5thnvrrrSfiyOek3ea"><defs><rect x="-914.6" y="-914.6" width="1829.2" height="1829.2" rx="914.6" ry="914.6" id="Ht5thnvrrrSfiyOek3ea_pad-12"/><rect x="-914.6" y="-914.6" width="1829.2" height="1829.2" id="Ht5thnvrrrSfiyOek3ea_pad-13"/><circle cx="0" cy="0" r="376" id="Ht5thnvrrrSfiyOek3ea_pad-14"/><rect x="-551" y="-1101" width="1102" height="2202" rx="551" ry="551" id="Ht5thnvrrrSfiyOek3ea_pad-15"/><rect x="-551" y="-851" width="1102" height="1702" rx="551" ry="551" id="Ht5thnvrrrSfiyOek3ea_pad-16"/><circle cx="0" cy="0" r="926" id="Ht5thnvrrrSfiyOek3ea_pad-17"/><circle cx="0" cy="0" r="1551" id="Ht5thnvrrrSfiyOek3ea_pad-18"/><circle cx="0" cy="0" r="2044.9" id="Ht5thnvrrrSfiyOek3ea_pad-19"/><circle cx="0" cy="0" r="1575" id="Ht5thnvrrrSfiyOek3ea_pad-20"/><mask id="Ht5thnvrrrSfiyOek3ea_clear-1" fill="#000" stroke="#000"><g><rect x="149237.38" y="-76867" width="17716.62" height="9720" fill="#fff"/><path d="M 139041.761 -124134.571 139184.619 -124182.19 139232.238 -124229.809 139279.857 -124325.047 139279.857 -124467.904 139232.238 -124563.142 139184.619 -124610.761 139089.38 -124658.38 138708.428 -124658.38 138708.428 -123658.38 139041.761 -123658.38 139137 -123706 139184.619 -123753.619 139232.238 -123848.857 139232.238 -123944.095 139184.619 -124039.333 139137 -124086.952 139041.761 -124134.571 138708.428 -124134.571 M 139898.904 -124182.19 139898.904 -124658.38 M 139565.571 -123658.38 139898.904 -124182.19 140232.238 -123658.38 M 141327.476 -124658.38 141327.476 -123658.38 141660.809 -124372.666 141994.142 -123658.38 141994.142 -124658.38 M 142422.714 -124372.666 142898.904 -124372.666 M 142327.476 -124658.38 142660.809 -123658.38 142994.142 -124658.38 M 143327.476 -124658.38 143327.476 -123658.38 M 143898.904 -124658.38 143470.333 -124086.952 M 143898.904 -123658.38 143327.476 -124229.809 M 144327.476 -124134.571 144660.809 -124134.571 M 144803.666 -124658.38 144327.476 -124658.38 144327.476 -123658.38 144803.666 -123658.38 M 145232.238 -124658.38 145232.238 -123658.38 145803.666 -124658.38 145803.666 -123658.38 M 146470.333 -123658.38 146660.809 -123658.38 146756.047 -123706 146851.285 -123801.238 146898.904 -123991.714 146898.904 -124325.047 146851.285 -124515.523 146756.047 -124610.761 146660.809 -124658.38 146470.333 -124658.38 146375.095 -124610.761 146279.857 -124515.523 146232.238 -124325.047 146232.238 -123991.714 146279.857 -123801.238 146375.095 -123706 146470.333 -123658.38 M 147184.619 -123658.38 147517.952 -124658.38 147851.285 -123658.38 M 148137 -124372.666 148613.19 -124372.666 M 148041.761 -124658.38 148375.095 -123658.38 148708.428 -124658.38 M 140153.095 -112593.38 140153.095 -111593.38 140486.428 -112307.666 140819.761 -111593.38 140819.761 -112593.38 M 141295.952 -112593.38 141295.952 -111593.38 M 141772.142 -112593.38 141772.142 -111593.38 142343.571 -112593.38 142343.571 -111593.38 M 142819.761 -112593.38 142819.761 -111593.38 M 143248.333 -112545.761 143391.19 -112593.38 143629.285 -112593.38 143724.523 -112545.761 143772.142 -112498.142 143819.761 -112402.904 143819.761 -112307.666 143772.142 -112212.428 143724.523 -112164.809 143629.285 -112117.19 143438.809 -112069.571 143343.571 -112021.952 143295.952 -111974.333 143248.333 -111879.095 143248.333 -111783.857 143295.952 -111688.619 143343.571 -111641 143438.809 -111593.38 143676.904 -111593.38 143819.761 -111641 M 144105.476 -111593.38 144676.904 -111593.38 M 144391.19 -112593.38 144391.19 -111593.38 M 145010.238 -112069.571 145343.571 -112069.571 M 145486.428 -112593.38 145010.238 -112593.38 145010.238 -111593.38 145486.428 -111593.38 M 146486.428 -112593.38 146153.095 -112117.19 M 145915 -112593.38 145915 -111593.38 146295.952 -111593.38 146391.19 -111641 146438.809 -111688.619 146486.428 -111783.857 146486.428 -111926.714 146438.809 -112021.952 146391.19 -112069.571 146295.952 -112117.19 145915 -112117.19 M 146676.904 -112688.619 147438.809 -112688.619 M 147676.904 -112069.571 148010.238 -112069.571 M 148153.095 -112593.38 147676.904 -112593.38 147676.904 -111593.38 148153.095 -111593.38 M 149200.714 -111593.38 149534.047 -112593.38 149867.38 -111593.38 M 150391.19 -111593.38 150486.428 -111593.38 150581.666 -111641 150629.285 -111688.619 150676.904 -111783.857 150724.523 -111974.333 150724.523 -112212.428 150676.904 -112402.904 150629.285 -112498.142 150581.666 -112545.761 150486.428 -112593.38 150391.19 -112593.38 150295.952 -112545.761 150248.333 -112498.142 150200.714 -112402.904 150153.095 -112212.428 150153.095 -111974.333 150200.714 -111783.857 150248.333 -111688.619 150295.952 -111641 150391.19 -111593.38" fill="none" stroke-width="150"/><use xlink:href="#Ht5thnvrrrSfiyOek3ea_pad-12" x="161544" y="-70612"/><use xlink:href="#Ht5thnvrrrSfiyOek3ea_pad-12" x="161544" y="-73152"/><use xlink:href="#Ht5thnvrrrSfiyOek3ea_pad-12" x="159004" y="-70612"/><use xlink:href="#Ht5thnvrrrSfiyOek3ea_pad-12" x="159004" y="-73152"/><use xlink:href="#Ht5thnvrrrSfiyOek3ea_pad-12" x="156464" y="-70612"/><use xlink:href="#Ht5thnvrrrSfiyOek3ea_pad-13" x="156464" y="-73152"/><use xlink:href="#Ht5thnvrrrSfiyOek3ea_pad-14" x="142717" y="-71909"/><use xlink:href="#Ht5thnvrrrSfiyOek3ea_pad-14" x="136937" y="-71909"/><use xlink:href="#Ht5thnvrrrSfiyOek3ea_pad-15" x="135507" y="-72439"/><use xlink:href="#Ht5thnvrrrSfiyOek3ea_pad-15" x="144147" y="-72439"/><use xlink:href="#Ht5thnvrrrSfiyOek3ea_pad-16" x="135507" y="-68259"/><use xlink:href="#Ht5thnvrrrSfiyOek3ea_pad-16" x="144147" y="-68259"/><use xlink:href="#Ht5thnvrrrSfiyOek3ea_pad-17" x="170130.562" y="-103687.001"/><use xlink:href="#Ht5thnvrrrSfiyOek3ea_pad-17" x="160069.438" y="-105100.999"/><use xlink:href="#Ht5thnvrrrSfiyOek3ea_pad-18" x="160973.579" y="-102408.969"/><use xlink:href="#Ht5thnvrrrSfiyOek3ea_pad-19" x="165100" y="-104394"/><use xlink:href="#Ht5thnvrrrSfiyOek3ea_pad-18" x="166908.282" y="-99009.939"/><use xlink:href="#Ht5thnvrrrSfiyOek3ea_pad-17" x="28702" y="-76581"/><use xlink:href="#Ht5thnvrrrSfiyOek3ea_pad-17" x="18542" y="-76581"/><use xlink:href="#Ht5thnvrrrSfiyOek3ea_pad-18" x="19812" y="-74041"/><use xlink:href="#Ht5thnvrrrSfiyOek3ea_pad-19" x="23622" y="-76581"/><use xlink:href="#Ht5thnvrrrSfiyOek3ea_pad-18" x="26162" y="-71501"/><use xlink:href="#Ht5thnvrrrSfiyOek3ea_pad-17" x="126315.562" y="-105227.999"/><use xlink:href="#Ht5thnvrrrSfiyOek3ea_pad-17" x="116254.438" y="-103814.001"/><use xlink:href="#Ht5thnvrrrSfiyOek3ea_pad-18" x="117865.578" y="-101475.47"/><use xlink:href="#Ht5thnvrrrSfiyOek3ea_pad-19" x="121285" y="-104521"/><use xlink:href="#Ht5thnvrrrSfiyOek3ea_pad-18" x="124507.28" y="-99843.938"/><use xlink:href="#Ht5thnvrrrSfiyOek3ea_pad-17" x="210770.562" y="-136580.001"/><use xlink:href="#Ht5thnvrrrSfiyOek3ea_pad-17" x="200709.438" y="-137993.999"/><use xlink:href="#Ht5thnvrrrSfiyOek3ea_pad-18" x="201613.579" y="-135301.969"/><use xlink:href="#Ht5thnvrrrSfiyOek3ea_pad-19" x="205740" y="-137287"/><use xlink:href="#Ht5thnvrrrSfiyOek3ea_pad-18" x="207548.282" y="-131902.939"/><use xlink:href="#Ht5thnvrrrSfiyOek3ea_pad-18" x="251841" y="-129286"/><use xlink:href="#Ht5thnvrrrSfiyOek3ea_pad-19" x="249301" y="-134366"/><use xlink:href="#Ht5thnvrrrSfiyOek3ea_pad-18" x="245491" y="-131826"/><use xlink:href="#Ht5thnvrrrSfiyOek3ea_pad-17" x="244221" y="-134366"/><use xlink:href="#Ht5thnvrrrSfiyOek3ea_pad-17" x="254381" y="-134366"/><use xlink:href="#Ht5thnvrrrSfiyOek3ea_pad-17" x="278257" y="-134366"/><use xlink:href="#Ht5thnvrrrSfiyOek3ea_pad-17" x="268097" y="-134366"/><use xlink:href="#Ht5thnvrrrSfiyOek3ea_pad-18" x="269367" y="-131826"/><use xlink:href="#Ht5thnvrrrSfiyOek3ea_pad-19" x="273177" y="-134366"/><use xlink:href="#Ht5thnvrrrSfiyOek3ea_pad-18" x="275717" y="-129286"/><use xlink:href="#Ht5thnvrrrSfiyOek3ea_pad-17" x="47752" y="-76581"/><use xlink:href="#Ht5thnvrrrSfiyOek3ea_pad-17" x="37592" y="-76581"/><use xlink:href="#Ht5thnvrrrSfiyOek3ea_pad-18" x="38862" y="-74041"/><use xlink:href="#Ht5thnvrrrSfiyOek3ea_pad-19" x="42672" y="-76581"/><use xlink:href="#Ht5thnvrrrSfiyOek3ea_pad-18" x="45212" y="-71501"/><use xlink:href="#Ht5thnvrrrSfiyOek3ea_pad-18" x="65833.28" y="-72284.938"/><use xlink:href="#Ht5thnvrrrSfiyOek3ea_pad-19" x="62611" y="-76962"/><use xlink:href="#Ht5thnvrrrSfiyOek3ea_pad-18" x="59191.578" y="-73916.47"/><use xlink:href="#Ht5thnvrrrSfiyOek3ea_pad-17" x="57580.438" y="-76255.001"/><use xlink:href="#Ht5thnvrrrSfiyOek3ea_pad-17" x="67641.562" y="-77668.999"/><use xlink:href="#Ht5thnvrrrSfiyOek3ea_pad-17" x="86437.562" y="-80335.999"/><use xlink:href="#Ht5thnvrrrSfiyOek3ea_pad-17" x="76376.438" y="-78922.001"/><use xlink:href="#Ht5thnvrrrSfiyOek3ea_pad-18" x="77987.578" y="-76583.47"/><use xlink:href="#Ht5thnvrrrSfiyOek3ea_pad-19" x="81407" y="-79629"/><use xlink:href="#Ht5thnvrrrSfiyOek3ea_pad-18" x="84629.28" y="-74951.938"/><use xlink:href="#Ht5thnvrrrSfiyOek3ea_pad-17" x="105360.562" y="-83002.999"/><use xlink:href="#Ht5thnvrrrSfiyOek3ea_pad-17" x="95299.438" y="-81589.001"/><use xlink:href="#Ht5thnvrrrSfiyOek3ea_pad-18" x="96910.578" y="-79250.47"/><use xlink:href="#Ht5thnvrrrSfiyOek3ea_pad-19" x="100330" y="-82296"/><use xlink:href="#Ht5thnvrrrSfiyOek3ea_pad-18" x="103552.28" y="-77618.938"/><use xlink:href="#Ht5thnvrrrSfiyOek3ea_pad-17" x="124283.562" y="-85669.999"/><use xlink:href="#Ht5thnvrrrSfiyOek3ea_pad-17" x="114222.438" y="-84256.001"/><use xlink:href="#Ht5thnvrrrSfiyOek3ea_pad-18" x="115833.578" y="-81917.47"/><use xlink:href="#Ht5thnvrrrSfiyOek3ea_pad-19" x="119253" y="-84963"/><use xlink:href="#Ht5thnvrrrSfiyOek3ea_pad-18" x="122475.28" y="-80285.938"/><use xlink:href="#Ht5thnvrrrSfiyOek3ea_pad-17" x="162764.562" y="-85526.001"/><use xlink:href="#Ht5thnvrrrSfiyOek3ea_pad-17" x="152703.438" y="-86939.999"/><use xlink:href="#Ht5thnvrrrSfiyOek3ea_pad-18" x="153607.579" y="-84247.969"/><use xlink:href="#Ht5thnvrrrSfiyOek3ea_pad-19" x="157734" y="-86233"/><use xlink:href="#Ht5thnvrrrSfiyOek3ea_pad-18" x="159542.282" y="-80848.939"/><use xlink:href="#Ht5thnvrrrSfiyOek3ea_pad-17" x="181687.562" y="-82859.001"/><use xlink:href="#Ht5thnvrrrSfiyOek3ea_pad-17" x="171626.438" y="-84272.999"/><use xlink:href="#Ht5thnvrrrSfiyOek3ea_pad-18" x="172530.579" y="-81580.969"/><use xlink:href="#Ht5thnvrrrSfiyOek3ea_pad-19" x="176657" y="-83566"/><use xlink:href="#Ht5thnvrrrSfiyOek3ea_pad-18" x="178465.282" y="-78181.939"/><use xlink:href="#Ht5thnvrrrSfiyOek3ea_pad-17" x="200483.562" y="-80192.001"/><use xlink:href="#Ht5thnvrrrSfiyOek3ea_pad-17" x="190422.438" y="-81605.999"/><use xlink:href="#Ht5thnvrrrSfiyOek3ea_pad-18" x="191326.579" y="-78913.969"/><use xlink:href="#Ht5thnvrrrSfiyOek3ea_pad-19" x="195453" y="-80899"/><use xlink:href="#Ht5thnvrrrSfiyOek3ea_pad-18" x="197261.282" y="-75514.939"/><use xlink:href="#Ht5thnvrrrSfiyOek3ea_pad-17" x="219406.562" y="-77525.001"/><use xlink:href="#Ht5thnvrrrSfiyOek3ea_pad-17" x="209345.438" y="-78938.999"/><use xlink:href="#Ht5thnvrrrSfiyOek3ea_pad-18" x="210249.579" y="-76246.969"/><use xlink:href="#Ht5thnvrrrSfiyOek3ea_pad-19" x="214376" y="-78232"/><use xlink:href="#Ht5thnvrrrSfiyOek3ea_pad-18" x="216184.282" y="-72847.939"/><use xlink:href="#Ht5thnvrrrSfiyOek3ea_pad-17" x="239395" y="-76708"/><use xlink:href="#Ht5thnvrrrSfiyOek3ea_pad-17" x="229235" y="-76708"/><use xlink:href="#Ht5thnvrrrSfiyOek3ea_pad-18" x="230505" y="-74168"/><use xlink:href="#Ht5thnvrrrSfiyOek3ea_pad-19" x="234315" y="-76708"/><use xlink:href="#Ht5thnvrrrSfiyOek3ea_pad-18" x="236855" y="-71628"/><use xlink:href="#Ht5thnvrrrSfiyOek3ea_pad-17" x="258318" y="-76708"/><use xlink:href="#Ht5thnvrrrSfiyOek3ea_pad-17" x="248158" y="-76708"/><use xlink:href="#Ht5thnvrrrSfiyOek3ea_pad-18" x="249428" y="-74168"/><use xlink:href="#Ht5thnvrrrSfiyOek3ea_pad-19" x="253238" y="-76708"/><use xlink:href="#Ht5thnvrrrSfiyOek3ea_pad-18" x="255778" y="-71628"/><use xlink:href="#Ht5thnvrrrSfiyOek3ea_pad-17" x="277368" y="-76708"/><use xlink:href="#Ht5thnvrrrSfiyOek3ea_pad-17" x="267208" y="-76708"/><use xlink:href="#Ht5thnvrrrSfiyOek3ea_pad-18" x="268478" y="-74168"/><use xlink:href="#Ht5thnvrrrSfiyOek3ea_pad-19" x="272288" y="-76708"/><use xlink:href="#Ht5thnvrrrSfiyOek3ea_pad-18" x="274828" y="-71628"/><use xlink:href="#Ht5thnvrrrSfiyOek3ea_pad-17" x="28448" y="-95758"/><use xlink:href="#Ht5thnvrrrSfiyOek3ea_pad-17" x="18288" y="-95758"/><use xlink:href="#Ht5thnvrrrSfiyOek3ea_pad-18" x="19558" y="-93218"/><use xlink:href="#Ht5thnvrrrSfiyOek3ea_pad-19" x="23368" y="-95758"/><use xlink:href="#Ht5thnvrrrSfiyOek3ea_pad-18" x="25908" y="-90678"/><use xlink:href="#Ht5thnvrrrSfiyOek3ea_pad-17" x="49911" y="-95758"/><use xlink:href="#Ht5thnvrrrSfiyOek3ea_pad-17" x="39751" y="-95758"/><use xlink:href="#Ht5thnvrrrSfiyOek3ea_pad-18" x="41021" y="-93218"/><use xlink:href="#Ht5thnvrrrSfiyOek3ea_pad-19" x="44831" y="-95758"/><use xlink:href="#Ht5thnvrrrSfiyOek3ea_pad-18" x="47371" y="-90678"/><use xlink:href="#Ht5thnvrrrSfiyOek3ea_pad-17" x="27559" y="-134239"/><use xlink:href="#Ht5thnvrrrSfiyOek3ea_pad-17" x="17399" y="-134239"/><use xlink:href="#Ht5thnvrrrSfiyOek3ea_pad-18" x="18669" y="-131699"/><use xlink:href="#Ht5thnvrrrSfiyOek3ea_pad-19" x="22479" y="-134239"/><use xlink:href="#Ht5thnvrrrSfiyOek3ea_pad-18" x="25019" y="-129159"/><use xlink:href="#Ht5thnvrrrSfiyOek3ea_pad-17" x="90374.562" y="-138628.999"/><use xlink:href="#Ht5thnvrrrSfiyOek3ea_pad-17" x="80313.438" y="-137215.001"/><use xlink:href="#Ht5thnvrrrSfiyOek3ea_pad-18" x="81924.578" y="-134876.47"/><use xlink:href="#Ht5thnvrrrSfiyOek3ea_pad-19" x="85344" y="-137922"/><use xlink:href="#Ht5thnvrrrSfiyOek3ea_pad-18" x="88566.28" y="-133244.938"/><use xlink:href="#Ht5thnvrrrSfiyOek3ea_pad-17" x="51435" y="-134239"/><use xlink:href="#Ht5thnvrrrSfiyOek3ea_pad-17" x="41275" y="-134239"/><use xlink:href="#Ht5thnvrrrSfiyOek3ea_pad-18" x="42545" y="-131699"/><use xlink:href="#Ht5thnvrrrSfiyOek3ea_pad-19" x="46355" y="-134239"/><use xlink:href="#Ht5thnvrrrSfiyOek3ea_pad-18" x="48895" y="-129159"/><use xlink:href="#Ht5thnvrrrSfiyOek3ea_pad-17" x="69673.562" y="-97226.999"/><use xlink:href="#Ht5thnvrrrSfiyOek3ea_pad-17" x="59612.438" y="-95813.001"/><use xlink:href="#Ht5thnvrrrSfiyOek3ea_pad-18" x="61223.578" y="-93474.47"/><use xlink:href="#Ht5thnvrrrSfiyOek3ea_pad-19" x="64643" y="-96520"/><use xlink:href="#Ht5thnvrrrSfiyOek3ea_pad-18" x="67865.28" y="-91842.938"/><use xlink:href="#Ht5thnvrrrSfiyOek3ea_pad-17" x="88596.562" y="-99893.999"/><use xlink:href="#Ht5thnvrrrSfiyOek3ea_pad-17" x="78535.438" y="-98480.001"/><use xlink:href="#Ht5thnvrrrSfiyOek3ea_pad-18" x="80146.578" y="-96141.47"/><use xlink:href="#Ht5thnvrrrSfiyOek3ea_pad-19" x="83566" y="-99187"/><use xlink:href="#Ht5thnvrrrSfiyOek3ea_pad-18" x="86788.28" y="-94509.938"/><use xlink:href="#Ht5thnvrrrSfiyOek3ea_pad-17" x="107392.562" y="-102560.999"/><use xlink:href="#Ht5thnvrrrSfiyOek3ea_pad-17" x="97331.438" y="-101147.001"/><use xlink:href="#Ht5thnvrrrSfiyOek3ea_pad-18" x="98942.578" y="-98808.47"/><use xlink:href="#Ht5thnvrrrSfiyOek3ea_pad-19" x="102362" y="-101854"/><use xlink:href="#Ht5thnvrrrSfiyOek3ea_pad-18" x="105584.28" y="-97176.938"/><use xlink:href="#Ht5thnvrrrSfiyOek3ea_pad-17" x="188926.562" y="-101147.001"/><use xlink:href="#Ht5thnvrrrSfiyOek3ea_pad-17" x="178865.438" y="-102560.999"/><use xlink:href="#Ht5thnvrrrSfiyOek3ea_pad-18" x="179769.579" y="-99868.969"/><use xlink:href="#Ht5thnvrrrSfiyOek3ea_pad-19" x="183896" y="-101854"/><use xlink:href="#Ht5thnvrrrSfiyOek3ea_pad-18" x="185704.282" y="-96469.939"/><use xlink:href="#Ht5thnvrrrSfiyOek3ea_pad-17" x="207849.562" y="-98480.001"/><use xlink:href="#Ht5thnvrrrSfiyOek3ea_pad-17" x="197788.438" y="-99893.999"/><use xlink:href="#Ht5thnvrrrSfiyOek3ea_pad-18" x="198692.579" y="-97201.969"/><use xlink:href="#Ht5thnvrrrSfiyOek3ea_pad-19" x="202819" y="-99187"/><use xlink:href="#Ht5thnvrrrSfiyOek3ea_pad-18" x="204627.282" y="-93802.939"/><use xlink:href="#Ht5thnvrrrSfiyOek3ea_pad-17" x="226772.562" y="-95813.001"/><use xlink:href="#Ht5thnvrrrSfiyOek3ea_pad-17" x="216711.438" y="-97226.999"/><use xlink:href="#Ht5thnvrrrSfiyOek3ea_pad-18" x="217615.579" y="-94534.969"/><use xlink:href="#Ht5thnvrrrSfiyOek3ea_pad-19" x="221742" y="-96520"/><use xlink:href="#Ht5thnvrrrSfiyOek3ea_pad-18" x="223550.282" y="-91135.939"/><use xlink:href="#Ht5thnvrrrSfiyOek3ea_pad-17" x="246761" y="-95885"/><use xlink:href="#Ht5thnvrrrSfiyOek3ea_pad-17" x="236601" y="-95885"/><use xlink:href="#Ht5thnvrrrSfiyOek3ea_pad-18" x="237871" y="-93345"/><use xlink:href="#Ht5thnvrrrSfiyOek3ea_pad-19" x="241681" y="-95885"/><use xlink:href="#Ht5thnvrrrSfiyOek3ea_pad-18" x="244221" y="-90805"/><use xlink:href="#Ht5thnvrrrSfiyOek3ea_pad-17" x="272923" y="-96012"/><use xlink:href="#Ht5thnvrrrSfiyOek3ea_pad-17" x="262763" y="-96012"/><use xlink:href="#Ht5thnvrrrSfiyOek3ea_pad-18" x="264033" y="-93472"/><use xlink:href="#Ht5thnvrrrSfiyOek3ea_pad-19" x="267843" y="-96012"/><use xlink:href="#Ht5thnvrrrSfiyOek3ea_pad-18" x="270383" y="-90932"/><use xlink:href="#Ht5thnvrrrSfiyOek3ea_pad-17" x="30353" y="-115062"/><use xlink:href="#Ht5thnvrrrSfiyOek3ea_pad-17" x="20193" y="-115062"/><use xlink:href="#Ht5thnvrrrSfiyOek3ea_pad-18" x="21463" y="-112522"/><use xlink:href="#Ht5thnvrrrSfiyOek3ea_pad-19" x="25273" y="-115062"/><use xlink:href="#Ht5thnvrrrSfiyOek3ea_pad-18" x="27813" y="-109982"/><use xlink:href="#Ht5thnvrrrSfiyOek3ea_pad-17" x="56388" y="-115062"/><use xlink:href="#Ht5thnvrrrSfiyOek3ea_pad-17" x="46228" y="-115062"/><use xlink:href="#Ht5thnvrrrSfiyOek3ea_pad-18" x="47498" y="-112522"/><use xlink:href="#Ht5thnvrrrSfiyOek3ea_pad-19" x="51308" y="-115062"/><use xlink:href="#Ht5thnvrrrSfiyOek3ea_pad-18" x="53848" y="-109982"/><use xlink:href="#Ht5thnvrrrSfiyOek3ea_pad-17" x="76531.562" y="-117419.999"/><use xlink:href="#Ht5thnvrrrSfiyOek3ea_pad-17" x="66470.438" y="-116006.001"/><use xlink:href="#Ht5thnvrrrSfiyOek3ea_pad-18" x="68081.578" y="-113667.47"/><use xlink:href="#Ht5thnvrrrSfiyOek3ea_pad-19" x="71501" y="-116713"/><use xlink:href="#Ht5thnvrrrSfiyOek3ea_pad-18" x="74723.28" y="-112035.938"/><use xlink:href="#Ht5thnvrrrSfiyOek3ea_pad-17" x="95327.562" y="-120086.999"/><use xlink:href="#Ht5thnvrrrSfiyOek3ea_pad-17" x="85266.438" y="-118673.001"/><use xlink:href="#Ht5thnvrrrSfiyOek3ea_pad-18" x="86877.578" y="-116334.47"/><use xlink:href="#Ht5thnvrrrSfiyOek3ea_pad-19" x="90297" y="-119380"/><use xlink:href="#Ht5thnvrrrSfiyOek3ea_pad-18" x="93519.28" y="-114702.938"/><use xlink:href="#Ht5thnvrrrSfiyOek3ea_pad-18" x="112315.28" y="-117369.938"/><use xlink:href="#Ht5thnvrrrSfiyOek3ea_pad-19" x="109093" y="-122047"/><use xlink:href="#Ht5thnvrrrSfiyOek3ea_pad-18" x="105673.578" y="-119001.47"/><use xlink:href="#Ht5thnvrrrSfiyOek3ea_pad-17" x="104062.438" y="-121340.001"/><use xlink:href="#Ht5thnvrrrSfiyOek3ea_pad-17" x="114123.562" y="-122753.999"/><use xlink:href="#Ht5thnvrrrSfiyOek3ea_pad-17" x="133046.562" y="-125420.999"/><use xlink:href="#Ht5thnvrrrSfiyOek3ea_pad-17" x="122985.438" y="-124007.001"/><use xlink:href="#Ht5thnvrrrSfiyOek3ea_pad-18" x="124596.578" y="-121668.47"/><use xlink:href="#Ht5thnvrrrSfiyOek3ea_pad-19" x="128016" y="-124714"/><use xlink:href="#Ht5thnvrrrSfiyOek3ea_pad-18" x="131238.28" y="-120036.938"/><use xlink:href="#Ht5thnvrrrSfiyOek3ea_pad-17" x="163272.562" y="-124007.001"/><use xlink:href="#Ht5thnvrrrSfiyOek3ea_pad-17" x="153211.438" y="-125420.999"/><use xlink:href="#Ht5thnvrrrSfiyOek3ea_pad-18" x="154115.579" y="-122728.969"/><use xlink:href="#Ht5thnvrrrSfiyOek3ea_pad-19" x="158242" y="-124714"/><use xlink:href="#Ht5thnvrrrSfiyOek3ea_pad-18" x="160050.282" y="-119329.939"/><use xlink:href="#Ht5thnvrrrSfiyOek3ea_pad-17" x="182195.562" y="-121340.001"/><use xlink:href="#Ht5thnvrrrSfiyOek3ea_pad-17" x="172134.438" y="-122753.999"/><use xlink:href="#Ht5thnvrrrSfiyOek3ea_pad-18" x="173038.579" y="-120061.969"/><use xlink:href="#Ht5thnvrrrSfiyOek3ea_pad-19" x="177165" y="-122047"/><use xlink:href="#Ht5thnvrrrSfiyOek3ea_pad-18" x="178973.282" y="-116662.939"/><use xlink:href="#Ht5thnvrrrSfiyOek3ea_pad-17" x="200991.562" y="-118673.001"/><use xlink:href="#Ht5thnvrrrSfiyOek3ea_pad-17" x="190930.438" y="-120086.999"/><use xlink:href="#Ht5thnvrrrSfiyOek3ea_pad-18" x="191834.579" y="-117394.969"/><use xlink:href="#Ht5thnvrrrSfiyOek3ea_pad-19" x="195961" y="-119380"/><use xlink:href="#Ht5thnvrrrSfiyOek3ea_pad-18" x="197769.282" y="-113995.939"/><use xlink:href="#Ht5thnvrrrSfiyOek3ea_pad-17" x="219914.562" y="-116006.001"/><use xlink:href="#Ht5thnvrrrSfiyOek3ea_pad-17" x="209853.438" y="-117419.999"/><use xlink:href="#Ht5thnvrrrSfiyOek3ea_pad-18" x="210757.579" y="-114727.969"/><use xlink:href="#Ht5thnvrrrSfiyOek3ea_pad-19" x="214884" y="-116713"/><use xlink:href="#Ht5thnvrrrSfiyOek3ea_pad-18" x="216692.282" y="-111328.939"/><use xlink:href="#Ht5thnvrrrSfiyOek3ea_pad-17" x="239903" y="-115189"/><use xlink:href="#Ht5thnvrrrSfiyOek3ea_pad-17" x="229743" y="-115189"/><use xlink:href="#Ht5thnvrrrSfiyOek3ea_pad-18" x="231013" y="-112649"/><use xlink:href="#Ht5thnvrrrSfiyOek3ea_pad-19" x="234823" y="-115189"/><use xlink:href="#Ht5thnvrrrSfiyOek3ea_pad-18" x="237363" y="-110109"/><use xlink:href="#Ht5thnvrrrSfiyOek3ea_pad-19" x="159749.306" y="-135472.786"/><use xlink:href="#Ht5thnvrrrSfiyOek3ea_pad-19" x="183392.946" y="-132149.889"/><use xlink:href="#Ht5thnvrrrSfiyOek3ea_pad-20" x="161870.304" y="-150564.471"/><use xlink:href="#Ht5thnvrrrSfiyOek3ea_pad-20" x="185513.944" y="-147241.574"/><use xlink:href="#Ht5thnvrrrSfiyOek3ea_pad-17" x="177750.562" y="-141279.001"/><use xlink:href="#Ht5thnvrrrSfiyOek3ea_pad-17" x="167689.438" y="-142692.999"/><use xlink:href="#Ht5thnvrrrSfiyOek3ea_pad-18" x="168593.579" y="-140000.969"/><use xlink:href="#Ht5thnvrrrSfiyOek3ea_pad-19" x="172720" y="-141986"/><use xlink:href="#Ht5thnvrrrSfiyOek3ea_pad-18" x="174528.282" y="-136601.939"/><use xlink:href="#Ht5thnvrrrSfiyOek3ea_pad-19" x="105278.054" y="-132403.889"/><use xlink:href="#Ht5thnvrrrSfiyOek3ea_pad-19" x="128921.694" y="-135726.786"/><use xlink:href="#Ht5thnvrrrSfiyOek3ea_pad-20" x="103157.056" y="-147495.574"/><use xlink:href="#Ht5thnvrrrSfiyOek3ea_pad-20" x="126800.696" y="-150818.471"/><use xlink:href="#Ht5thnvrrrSfiyOek3ea_pad-17" x="120981.562" y="-142946.999"/><use xlink:href="#Ht5thnvrrrSfiyOek3ea_pad-17" x="110920.438" y="-141533.001"/><use xlink:href="#Ht5thnvrrrSfiyOek3ea_pad-18" x="112531.578" y="-139194.47"/><use xlink:href="#Ht5thnvrrrSfiyOek3ea_pad-19" x="115951" y="-142240"/><use xlink:href="#Ht5thnvrrrSfiyOek3ea_pad-18" x="119173.28" y="-137562.938"/><use xlink:href="#Ht5thnvrrrSfiyOek3ea_pad-17" x="258953" y="-115189"/><use xlink:href="#Ht5thnvrrrSfiyOek3ea_pad-17" x="248793" y="-115189"/><use xlink:href="#Ht5thnvrrrSfiyOek3ea_pad-18" x="250063" y="-112649"/><use xlink:href="#Ht5thnvrrrSfiyOek3ea_pad-19" x="253873" y="-115189"/><use xlink:href="#Ht5thnvrrrSfiyOek3ea_pad-18" x="256413" y="-110109"/><use xlink:href="#Ht5thnvrrrSfiyOek3ea_pad-17" x="280289" y="-115189"/><use xlink:href="#Ht5thnvrrrSfiyOek3ea_pad-17" x="270129" y="-115189"/><use xlink:href="#Ht5thnvrrrSfiyOek3ea_pad-18" x="271399" y="-112649"/><use xlink:href="#Ht5thnvrrrSfiyOek3ea_pad-19" x="275209" y="-115189"/><use xlink:href="#Ht5thnvrrrSfiyOek3ea_pad-18" x="277749" y="-110109"/></g></mask></defs><g transform="translate(0,-219540.47099999996) scale(1,-1)" fill="currentColor" stroke="currentColor"><g mask="url(#Ht5thnvrrrSfiyOek3ea_clear-1)"><path d="M 150864 -76807 150864 -74267 M 150864 -76807 153404 -76807 M 151114 -76557 151114 -67207 M 166894 -76557 151114 -76557 M 166894 -67207 166894 -76557 M 151114 -67207 166894 -67207" fill="none" stroke-width="120"/><path d="M 149312.38 -72215.333 150026.666 -72215.333 150169.523 -72262.952 150264.761 -72358.19 150312.38 -72501.047 150312.38 -72596.285 M 150312.38 -71215.333 150312.38 -71786.761 M 150312.38 -71501.047 149312.38 -71501.047 149455.238 -71596.285 149550.476 -71691.523 149598.095 -71786.761" fill="none" stroke-width="150"/></g></g></svg>